<svg width="18" height="18" viewBox="0 0 18 18" fill="none" xmlns="http://www.w3.org/2000/svg">
<mask id="mask0_473_11" style="mask-type:alpha" maskUnits="userSpaceOnUse" x="-3" y="-3" width="24" height="24">
<rect x="-3" y="-3" width="24" height="24" fill="currentColor"/>
</mask>
<g mask="url(#mask0_473_11)">
<path d="M3 12H4.5V6H2V7.5H3V12ZM6.5 12H9C9.28333 12 9.52083 11.9042 9.7125 11.7125C9.90417 11.5208 10 11.2833 10 11V7C10 6.71667 9.90417 6.47917 9.7125 6.2875C9.52083 6.09583 9.28333 6 9 6H6.5C6.21667 6 5.97917 6.09583 5.7875 6.2875C5.59583 6.47917 5.5 6.71667 5.5 7V11C5.5 11.2833 5.59583 11.5208 5.7875 11.7125C5.97917 11.9042 6.21667 12 6.5 12ZM7 10.5V7.5H8.5V10.5H7ZM10.925 12H12.425V9.75L14.175 12H16L13.675 9L16 6H14.175L12.425 8.25V6H10.925V12ZM2 18C1.45 18 0.979167 17.8042 0.5875 17.4125C0.195833 17.0208 0 16.55 0 16V2C0 1.45 0.195833 0.979167 0.5875 0.5875C0.979167 0.195833 1.45 0 2 0H16C16.55 0 17.0208 0.195833 17.4125 0.5875C17.8042 0.979167 18 1.45 18 2V16C18 16.55 17.8042 17.0208 17.4125 17.4125C17.0208 17.8042 16.55 18 16 18H2ZM2 16H16V2H2V16Z" fill="currentColor"/>
</g>
</svg>
