<svg width="18" height="18" viewBox="0 0 18 18" fill="none" xmlns="http://www.w3.org/2000/svg">
<mask id="mask0_1367_8" style="mask-type:alpha" maskUnits="userSpaceOnUse" x="-3" y="-4" width="24" height="24">
<rect x="-3" y="-4" width="24" height="24" fill="currentColor"/>
</mask>
<g mask="url(#mask0_1367_8)">
<path d="M1 10V8H6V6H1V4H6V2H1V0H6C6.55 0 7.02083 0.195833 7.4125 0.5875C7.80417 0.979167 8 1.45 8 2V3.5C8 3.93333 7.85833 4.29167 7.575 4.575C7.29167 4.85833 6.93333 5 6.5 5C6.93333 5 7.29167 5.14167 7.575 5.425C7.85833 5.70833 8 6.06667 8 6.5V8C8 8.55 7.80417 9.02083 7.4125 9.4125C7.02083 9.80417 6.55 10 6 10H1ZM15 10H12C11.45 10 10.9792 9.80417 10.5875 9.4125C10.1958 9.02083 10 8.55 10 8V2C10 1.45 10.1958 0.979167 10.5875 0.5875C10.9792 0.195833 11.45 0 12 0H15C15.55 0 16.0208 0.195833 16.4125 0.5875C16.8042 0.979167 17 1.45 17 2V8C17 8.55 16.8042 9.02083 16.4125 9.4125C16.0208 9.80417 15.55 10 15 10ZM15 8V2H12V8H15ZM0 18V13H2V18H0ZM4 18V13H6V18H4ZM8 18V13H10V18H8ZM12 18V13H18V18H12Z" fill="currentColor"/>
</g>
</svg>
