<svg width="37" height="38" viewBox="0 0 37 38" fill="none" xmlns="http://www.w3.org/2000/svg">
<path d="M23.5875 33.25L13.451 29.5688L6.55208 32.3792C6.11528 32.6167 5.6849 32.6035 5.26094 32.3396C4.83698 32.0757 4.625 31.6799 4.625 31.1521V9.06458C4.625 8.72153 4.72135 8.41806 4.91406 8.15417C5.10677 7.89028 5.35729 7.69236 5.66562 7.56042L13.451 4.75L23.5875 8.39167L30.4479 5.58125C30.8847 5.37014 31.3151 5.38993 31.7391 5.64062C32.163 5.89132 32.375 6.28056 32.375 6.80833V29.1729C32.375 29.4632 32.2786 29.7139 32.0859 29.925C31.8932 30.1361 31.6556 30.2944 31.3729 30.4L23.5875 33.25ZM22.2771 30.2812V10.2917L14.7229 7.67917V27.6687L22.2771 30.2812ZM24.5896 30.2812L30.0625 28.4208V8.15417L24.5896 10.2917V30.2812ZM6.9375 29.8062L12.4104 27.6687V7.67917L6.9375 9.53958V29.8062Z" fill="currentColor"/>
</svg>
