<svg width="24" height="24" viewBox="0 0 24 24" fill="none" xmlns="http://www.w3.org/2000/svg">
<path d="M14.8974 21L8.49539 18.675L4.13816 20.45C3.86228 20.6 3.59046 20.5917 3.3227 20.425C3.05493 20.2583 2.92105 20.0083 2.92105 19.675V5.725C2.92105 5.50833 2.98191 5.31667 3.10362 5.15C3.22533 4.98333 3.38355 4.85833 3.57829 4.775L8.49539 3L14.8974 5.3L19.2303 3.525C19.5061 3.39167 19.778 3.40417 20.0457 3.5625C20.3135 3.72083 20.4474 3.96667 20.4474 4.3V18.425C20.4474 18.6083 20.3865 18.7667 20.2648 18.9C20.1431 19.0333 19.993 19.1333 19.8145 19.2L14.8974 21ZM14.0697 19.125V6.5L9.29868 4.85V17.475L14.0697 19.125ZM15.5303 19.125L18.9868 17.95V5.15L15.5303 6.5V19.125ZM4.38158 18.825L7.83816 17.475V4.85L4.38158 6.025V18.825Z" fill="currentColor"/>
</svg>
