<svg width="24" height="24" viewBox="0 0 24 24"  fill="none" xmlns="http://www.w3.org/2000/svg">
<path d="M11.475 14.125L7.84995 10.5C7.79995 10.45 7.76245 10.3958 7.73745 10.3375C7.71245 10.2792 7.69995 10.2167 7.69995 10.15C7.69995 10.0167 7.74578 9.89999 7.83745 9.79999C7.92912 9.69999 8.04995 9.64999 8.19995 9.64999H15.8C15.95 9.64999 16.0708 9.69999 16.1625 9.79999C16.2541 9.89999 16.3 10.0167 16.3 10.15C16.3 10.1833 16.25 10.3 16.15 10.5L12.525 14.125C12.4416 14.2083 12.3583 14.2667 12.275 14.3C12.1916 14.3333 12.1 14.35 12 14.35C11.9 14.35 11.8083 14.3333 11.725 14.3C11.6416 14.2667 11.5583 14.2083 11.475 14.125Z" fill="currentColor"/>
</svg>
