<svg width="24" height="24" viewBox="0 0 24 24" fill="none" xmlns="http://www.w3.org/2000/svg">
<path d="M13.85 16.45L10.225 12.825C10.1417 12.7417 10.0833 12.6583 10.05 12.575C10.0167 12.4917 10 12.4 10 12.3C10 12.2 10.0167 12.1083 10.05 12.025C10.0833 11.9417 10.1417 11.8583 10.225 11.775L13.85 8.15C13.9 8.1 13.9542 8.0625 14.0125 8.0375C14.0708 8.0125 14.1333 8 14.2 8C14.3333 8 14.45 8.04583 14.55 8.1375C14.65 8.22917 14.7 8.35 14.7 8.5V16.1C14.7 16.25 14.65 16.3708 14.55 16.4625C14.45 16.5542 14.3333 16.6 14.2 16.6C14.1667 16.6 14.05 16.55 13.85 16.45Z" fill="currentColor"/>
</svg>
