<svg width="24" height="24" viewBox="0 0 24 24" fill="none" xmlns="http://www.w3.org/2000/svg">
<path d="M8.5 14.7C8.35 14.7 8.22917 14.65 8.1375 14.55C8.04583 14.45 8 14.3333 8 14.2C8 14.1667 8.05 14.05 8.15 13.85L11.775 10.225C11.8583 10.1417 11.9417 10.0833 12.025 10.05C12.1083 10.0167 12.2 10 12.3 10C12.4 10 12.4917 10.0167 12.575 10.05C12.6583 10.0833 12.7417 10.1417 12.825 10.225L16.45 13.85C16.5 13.9 16.5375 13.9542 16.5625 14.0125C16.5875 14.0708 16.6 14.1333 16.6 14.2C16.6 14.3333 16.5542 14.45 16.4625 14.55C16.3708 14.65 16.25 14.7 16.1 14.7H8.5Z" fill="currentColor"/>
</svg>
