<svg width="24" height="24" viewBox="0 0 24 24" fill="none" xmlns="http://www.w3.org/2000/svg">
<path d="M10.5 16.6C10.3667 16.6 10.25 16.5542 10.15 16.4625C10.05 16.3708 10 16.25 10 16.1V8.5C10 8.35 10.05 8.22917 10.15 8.1375C10.25 8.04583 10.3667 8 10.5 8C10.5333 8 10.65 8.05 10.85 8.15L14.475 11.775C14.5583 11.8583 14.6167 11.9417 14.65 12.025C14.6833 12.1083 14.7 12.2 14.7 12.3C14.7 12.4 14.6833 12.4917 14.65 12.575C14.6167 12.6583 14.5583 12.7417 14.475 12.825L10.85 16.45C10.8 16.5 10.7458 16.5375 10.6875 16.5625C10.6292 16.5875 10.5667 16.6 10.5 16.6Z" fill="currentColor"/>
</svg>
