<svg width="35" height="35" viewBox="0 0 35 35" fill="none" xmlns="http://www.w3.org/2000/svg">
<g clip-path="url(#clip0_30_175)">
<path d="M27.7083 4.37504H21.6125C21 2.68337 19.3958 1.45837 17.5 1.45837C15.6042 1.45837 14 2.68337 13.3875 4.37504H7.29167C5.6875 4.37504 4.375 5.68754 4.375 7.29171V27.7084C4.375 29.3125 5.6875 30.625 7.29167 30.625H27.7083C29.3125 30.625 30.625 29.3125 30.625 27.7084V7.29171C30.625 5.68754 29.3125 4.37504 27.7083 4.37504ZM17.5 4.37504C18.3021 4.37504 18.9583 5.03129 18.9583 5.83337C18.9583 6.63546 18.3021 7.29171 17.5 7.29171C16.6979 7.29171 16.0417 6.63546 16.0417 5.83337C16.0417 5.03129 16.6979 4.37504 17.5 4.37504ZM20.4167 24.7917H10.2083V21.875H20.4167V24.7917ZM24.7917 18.9584H10.2083V16.0417H24.7917V18.9584ZM24.7917 13.125H10.2083V10.2084H24.7917V13.125Z" fill="currentColor"/>
</g>
<defs>
<clipPath id="clip0_30_175">
<rect width="35" height="35" fill="white"/>
</clipPath>
</defs>
</svg>
