<svg width="38" height="38" viewBox="0 0 38 38" fill="none" xmlns="http://www.w3.org/2000/svg">
<path d="M11.0833 4.75C12.763 4.75 14.3739 5.41726 15.5617 6.60499C16.7494 7.79272 17.4167 9.40363 17.4167 11.0833C17.4167 14.0283 15.4058 16.5142 12.6667 17.2108V20.7892C13.2525 20.9317 13.8067 21.1692 14.3133 21.47L21.47 14.3133C20.9 13.3633 20.5833 12.2708 20.5833 11.0833C20.5833 9.40363 21.2506 7.79272 22.4383 6.60499C23.6261 5.41726 25.237 4.75 26.9167 4.75C28.5964 4.75 30.2073 5.41726 31.395 6.60499C32.5827 7.79272 33.25 9.40363 33.25 11.0833C33.25 12.763 32.5827 14.3739 31.395 15.5617C30.2073 16.7494 28.5964 17.4167 26.9167 17.4167C25.745 17.4167 24.6525 17.1 23.75 16.5458L16.5458 23.75C17.1 24.6525 17.4167 25.745 17.4167 26.9167C17.4167 28.5964 16.7494 30.2073 15.5617 31.395C14.3739 32.5827 12.763 33.25 11.0833 33.25C9.40363 33.25 7.79272 32.5827 6.60499 31.395C5.41726 30.2073 4.75 28.5964 4.75 26.9167C4.75 23.9717 6.76083 21.4858 9.5 20.7892V17.2108C6.76083 16.5142 4.75 14.0283 4.75 11.0833C4.75 9.40363 5.41726 7.79272 6.60499 6.60499C7.79272 5.41726 9.40363 4.75 11.0833 4.75ZM26.9167 20.5833C28.5964 20.5833 30.2073 21.2506 31.395 22.4383C32.5827 23.6261 33.25 25.237 33.25 26.9167C33.25 28.5964 32.5827 30.2073 31.395 31.395C30.2073 32.5827 28.5964 33.25 26.9167 33.25C25.237 33.25 23.6261 32.5827 22.4383 31.395C21.2506 30.2073 20.5833 28.5964 20.5833 26.9167C20.5833 25.237 21.2506 23.6261 22.4383 22.4383C23.6261 21.2506 25.237 20.5833 26.9167 20.5833ZM26.9167 23.75C26.0768 23.75 25.2714 24.0836 24.6775 24.6775C24.0836 25.2714 23.75 26.0768 23.75 26.9167C23.75 27.7565 24.0836 28.562 24.6775 29.1558C25.2714 29.7497 26.0768 30.0833 26.9167 30.0833C27.7565 30.0833 28.562 29.7497 29.1558 29.1558C29.7497 28.562 30.0833 27.7565 30.0833 26.9167C30.0833 26.0768 29.7497 25.2714 29.1558 24.6775C28.562 24.0836 27.7565 23.75 26.9167 23.75Z" fill="currentColor"/>
</svg>
