<svg width="25" height="24" viewBox="0 0 25 24" fill="none" xmlns="http://www.w3.org/2000/svg">
<path d="M11.2821 6H13.3333V13H11.2821V6ZM9.23077 20C9.23077 20.2652 9.12271 20.5196 8.93037 20.7071C8.73802 20.8946 8.47715 21 8.20513 21H5.12821C4.85619 21 4.59531 20.8946 4.40297 20.7071C4.21062 20.5196 4.10257 20.2652 4.10257 20V15L6.15385 6H10.2564V13C10.2564 13.2652 10.1484 13.5196 9.95601 13.7071C9.76366 13.8946 9.50279 14 9.23077 14V20ZM10.2564 5H7.17949V3H10.2564V5ZM15.3846 20V14C15.1126 14 14.8517 13.8946 14.6594 13.7071C14.467 13.5196 14.359 13.2652 14.359 13V6H18.4615L20.5128 15V20C20.5128 20.2652 20.4048 20.5196 20.2124 20.7071C20.0201 20.8946 19.7592 21 19.4872 21H16.4103C16.1382 21 15.8774 20.8946 15.685 20.7071C15.4927 20.5196 15.3846 20.2652 15.3846 20ZM14.359 5V3H17.4359V5H14.359Z" fill="currentColor"/>
</svg>
