<svg width="40" height="39" viewBox="0 0 40 39" fill="none" xmlns="http://www.w3.org/2000/svg">
<path d="M18.3333 9.75H21.6667V21.125H18.3333V9.75ZM15 32.5C15 32.931 14.8244 33.3443 14.5118 33.649C14.1993 33.9538 13.7754 34.125 13.3333 34.125H8.33333C7.89131 34.125 7.46738 33.9538 7.15482 33.649C6.84226 33.3443 6.66667 32.931 6.66667 32.5V24.375L10 9.75H16.6667V21.125C16.6667 21.556 16.4911 21.9693 16.1785 22.274C15.866 22.5788 15.442 22.75 15 22.75V32.5ZM16.6667 8.125H11.6667V4.875H16.6667V8.125ZM25 32.5V22.75C24.558 22.75 24.1341 22.5788 23.8215 22.274C23.5089 21.9693 23.3333 21.556 23.3333 21.125V9.75H30L33.3333 24.375V32.5C33.3333 32.931 33.1577 33.3443 32.8452 33.649C32.5326 33.9538 32.1087 34.125 31.6667 34.125H26.6667C26.2246 34.125 25.8007 33.9538 25.4882 33.649C25.1756 33.3443 25 32.931 25 32.5ZM23.3333 8.125V4.875H28.3333V8.125H23.3333Z" fill="currentColor"/>
</svg>
