<svg width="19" height="21" viewBox="0 0 19 21" fill="none" xmlns="http://www.w3.org/2000/svg">
<mask id="mask0_1426_7" style="mask-type:alpha" maskUnits="userSpaceOnUse" x="-3" y="-2" width="24" height="25">
<rect x="-3" y="-1.92554" width="24" height="24" fill="currentColor"/>
</mask>
<g mask="url(#mask0_1426_7)">
<path d="M1 20.0744C0.716667 20.0744 0.479167 19.9786 0.2875 19.7869C0.0958333 19.5953 0 19.3578 0 19.0744V5.12442C0 4.87442 0.05 4.66192 0.15 4.48692C0.25 4.31192 0.416667 4.17442 0.65 4.07442L10.65 0.0744186C10.9833 -0.0589147 11.2917 -0.0130814 11.575 0.211919C11.8583 0.436919 12 0.724419 12 1.07442V4.07442H13C13.2833 4.07442 13.5208 4.17025 13.7125 4.36192C13.9042 4.55359 14 4.79109 14 5.07442V8.07442H12V6.07442H2V18.0744H7.175L9.175 20.0744H1ZM6 4.07442H10V2.52442L6 4.07442ZM14 20.0744C12.6167 20.0744 11.4375 19.5869 10.4625 18.6119C9.4875 17.6369 9 16.4578 9 15.0744C9 13.6911 9.4875 12.5119 10.4625 11.5369C11.4375 10.5619 12.6167 10.0744 14 10.0744C15.3833 10.0744 16.5625 10.5619 17.5375 11.5369C18.5125 12.5119 19 13.6911 19 15.0744C19 16.4578 18.5125 17.6369 17.5375 18.6119C16.5625 19.5869 15.3833 20.0744 14 20.0744ZM12.75 17.5744L16.75 15.0744L12.75 12.5744V17.5744Z" fill="currentColor"/>
</g>
</svg>
