<svg width="35" height="35" viewBox="0 0 35 35" fill="none" xmlns="http://www.w3.org/2000/svg">
<g clip-path="url(#clip0_30_182)">
<path d="M29.1667 5.83337H5.83332C4.22916 5.83337 2.91666 7.14587 2.91666 8.75004V26.25C2.91666 27.8542 4.22916 29.1667 5.83332 29.1667H29.1667C30.7708 29.1667 32.0833 27.8542 32.0833 26.25V8.75004C32.0833 7.14587 30.7708 5.83337 29.1667 5.83337ZM11.6667 16.0417H5.83332V8.75004H11.6667V16.0417ZM20.4167 16.0417H14.5833V8.75004H20.4167V16.0417ZM29.1667 16.0417H23.3333V8.75004H29.1667V16.0417ZM11.6667 26.25H5.83332V18.9584H11.6667V26.25ZM20.4167 26.25H14.5833V18.9584H20.4167V26.25ZM29.1667 26.25H23.3333V18.9584H29.1667V26.25Z" fill="currentColor"/>
</g>
<defs>
<clipPath id="clip0_30_182">
<rect width="35" height="35" fill="white"/>
</clipPath>
</defs>
</svg>
