<svg width="38" height="38" viewBox="0 0 38 38" fill="none" xmlns="http://www.w3.org/2000/svg">
<path d="M30.0833 34.8333H7.91666V31.6666H30.0833V34.8333ZM20.5833 3.16663C18.6042 3.16663 16.7517 4.14829 15.6592 5.79496L11.0833 12.6666L14.25 15.8333L17.5117 13.6641C18.2083 13.1733 19.2217 13.3633 19.7125 14.0916C19.7442 14.1391 19.7917 14.1866 19.7917 14.25C20.2667 15.1841 20.0925 16.3083 19.3483 17.0525L11.7483 24.6525C10.8775 25.5391 10.8775 26.9641 11.7642 27.835C12.1758 28.2466 12.7458 28.5 13.3317 28.5H26.9167V9.49996C26.9167 7.82025 26.2494 6.20935 25.0617 5.02162C23.8739 3.83389 22.263 3.16663 20.5833 3.16663Z" fill="currentColor"/>
</svg>
