<svg width="20" height="16" viewBox="0 0 20 16" fill="none" xmlns="http://www.w3.org/2000/svg">
<mask id="mask0_2385_8" style="mask-type:alpha" maskUnits="userSpaceOnUse" x="-2" y="-4" width="24" height="24">
<rect x="-2" y="-4" width="24" height="24" fill="currentColor"/>
</mask>
<g mask="url(#mask0_2385_8)">
<path d="M16 9V7H20V9H16ZM17.2 16L14 13.6L15.2 12L18.4 14.4L17.2 16ZM15.2 4L14 2.4L17.2 0L18.4 1.6L15.2 4ZM3 15V11H2C1.45 11 0.979167 10.8042 0.5875 10.4125C0.195833 10.0208 0 9.55 0 9V7C0 6.45 0.195833 5.97917 0.5875 5.5875C0.979167 5.19583 1.45 5 2 5H6L11 2V14L6 11H5V15H3ZM9 10.45V5.55L6.55 7H2V9H6.55L9 10.45ZM12 11.35V4.65C12.45 5.05 12.8125 5.5375 13.0875 6.1125C13.3625 6.6875 13.5 7.31667 13.5 8C13.5 8.68333 13.3625 9.3125 13.0875 9.8875C12.8125 10.4625 12.45 10.95 12 11.35Z" fill="currentColor"/>
</g>
</svg>
