<svg width="24" height="24" viewBox="0 0 24 24" fill="none" xmlns="http://www.w3.org/2000/svg">
<path d="M16.5526 18C17.1368 18 17.5263 18.4 17.5263 19C17.5263 19.6 17.1368 20 16.5526 20C15.9684 20 15.579 19.6 15.579 19C15.579 18.4 15.9684 18 16.5526 18ZM16.5526 15C13.9237 15 11.5868 16.7 10.7105 19C11.5868 21.3 13.9237 23 16.5526 23C19.1816 23 21.5184 21.3 22.3947 19C21.5184 16.7 19.1816 15 16.5526 15ZM16.5526 21.5C15.1895 21.5 14.1184 20.4 14.1184 19C14.1184 17.6 15.1895 16.5 16.5526 16.5C17.9158 16.5 18.9868 17.6 18.9868 19C18.9868 20.4 17.9158 21.5 16.5526 21.5ZM8.86053 19.7L8.56843 19H3.89474V8H19.4737V13.6C20.1553 13.9 20.8368 14.2 21.4211 14.7V8C21.4211 7.5 21.2263 7 20.8368 6.6C20.4474 6.2 20.0579 6 19.4737 6H15.579V4C15.579 3.4 15.3842 3 14.9947 2.6C14.6053 2.2 14.2158 2 13.6316 2H9.73685C9.15264 2 8.76316 2.2 8.37369 2.6C7.98421 3 7.78948 3.4 7.78948 4V6H3.89474C3.31053 6 2.92106 6.2 2.53158 6.6C2.14211 7 1.94737 7.5 1.94737 8V19C1.94737 19.5 2.14211 20 2.53158 20.4C2.92106 20.8 3.31053 21 3.89474 21H9.54211C9.25 20.6 9.05527 20.2 8.86053 19.7ZM9.73685 4H13.6316V6H9.73685V4Z" fill="currentColor"/>
</svg>
