<svg width="38" height="38" viewBox="0 0 38 38" fill="none" xmlns="http://www.w3.org/2000/svg">
<path d="M15.8333 3.16663H22.1667C23.0065 3.16663 23.812 3.50026 24.4058 4.09412C24.9997 4.68799 25.3333 5.49344 25.3333 6.33329V9.49996H31.6667C32.5065 9.49996 33.312 9.83359 33.9058 10.4275C34.4997 11.0213 34.8333 11.8268 34.8333 12.6666V20.6308C34.0417 19.3641 32.9333 18.2716 31.6667 17.4166V12.6666H6.33334V30.0833H16.625C17.1158 31.2708 17.8283 32.3316 18.6992 33.25H6.33334C4.57584 33.25 3.16667 31.825 3.16667 30.0833V12.6666C3.16667 10.9091 4.57584 9.49996 6.33334 9.49996H12.6667V6.33329C12.6667 4.57579 14.0758 3.16663 15.8333 3.16663ZM22.1667 9.49996V6.33329H15.8333V9.49996H22.1667ZM32.1575 29.925L37.0342 34.8333L34.8333 37.0341L29.8933 32.1733C28.8008 32.8541 27.5025 33.25 26.125 33.25C22.1667 33.25 19 30.0833 19 26.125C19 22.1666 22.1667 19 26.125 19C30.0833 19 33.25 22.1666 33.25 26.125C33.25 27.5183 32.8542 28.8325 32.1575 29.925ZM26.125 30.0833C27.1748 30.0833 28.1816 29.6663 28.924 28.9239C29.6663 28.1816 30.0833 27.1748 30.0833 26.125C30.0833 25.0751 29.6663 24.0683 28.924 23.326C28.1816 22.5837 27.1748 22.1666 26.125 22.1666C25.0752 22.1666 24.0684 22.5837 23.326 23.326C22.5837 24.0683 22.1667 25.0751 22.1667 26.125C22.1667 27.1748 22.5837 28.1816 23.326 28.9239C24.0684 29.6663 25.0752 30.0833 26.125 30.0833Z" fill="currentColor"/>
</svg>
