<svg viewBox="0 0 37 38" fill="none" xmlns="http://www.w3.org/2000/svg">
<path d="M26.2083 28.5C27.1333 28.5 27.75 29.1333 27.75 30.0833C27.75 31.0333 27.1333 31.6666 26.2083 31.6666C25.2833 31.6666 24.6667 31.0333 24.6667 30.0833C24.6667 29.1333 25.2833 28.5 26.2083 28.5ZM26.2083 23.75C22.0458 23.75 18.3458 26.4416 16.9583 30.0833C18.3458 33.725 22.0458 36.4166 26.2083 36.4166C30.3708 36.4166 34.0708 33.725 35.4583 30.0833C34.0708 26.4416 30.3708 23.75 26.2083 23.75ZM26.2083 34.0416C24.05 34.0416 22.3542 32.3 22.3542 30.0833C22.3542 27.8666 24.05 26.125 26.2083 26.125C28.3667 26.125 30.0625 27.8666 30.0625 30.0833C30.0625 32.3 28.3667 34.0416 26.2083 34.0416ZM14.0292 31.1916L13.5667 30.0833H6.16666V12.6666H30.8333V21.5333C31.9125 22.0083 32.9917 22.4833 33.9167 23.275V12.6666C33.9167 11.875 33.6083 11.0833 32.9917 10.45C32.375 9.81663 31.7583 9.49996 30.8333 9.49996H24.6667V6.33329C24.6667 5.38329 24.3583 4.74996 23.7417 4.11663C23.125 3.48329 22.5083 3.16663 21.5833 3.16663H15.4167C14.4917 3.16663 13.875 3.48329 13.2583 4.11663C12.6417 4.74996 12.3333 5.38329 12.3333 6.33329V9.49996H6.16666C5.24166 9.49996 4.62499 9.81663 4.00833 10.45C3.39166 11.0833 3.08333 11.875 3.08333 12.6666V30.0833C3.08333 30.875 3.39166 31.6666 4.00833 32.3C4.62499 32.9333 5.24166 33.25 6.16666 33.25H15.1083C14.6458 32.6166 14.3375 31.9833 14.0292 31.1916ZM15.4167 6.33329H21.5833V9.49996H15.4167V6.33329Z" fill="currentColor"/>
</svg>
