<svg width="24" height="24" viewBox="0 0 24 24" fill="none" xmlns="http://www.w3.org/2000/svg">
<path d="M9.73683 2H13.6316C14.148 2 14.6434 2.21071 15.0086 2.58579C15.3738 2.96086 15.5789 3.46957 15.5789 4V6H19.4737C19.9901 6 20.4855 6.21071 20.8507 6.58579C21.2159 6.96086 21.421 7.46957 21.421 8V13.53C20.8563 13 20.2039 12.6 19.4737 12.34V8H3.89473V19H11.7621C11.8789 19.72 12.1224 20.39 12.4631 21H3.89473C3.37825 21 2.88293 20.7893 2.51773 20.4142C2.15253 20.0391 1.94736 19.5304 1.94736 19V8C1.94736 7.46957 2.15253 6.96086 2.51773 6.58579C2.88293 6.21071 3.37825 6 3.89473 6H7.78946V4C7.78946 3.46957 7.99463 2.96086 8.35983 2.58579C8.72504 2.21071 9.22036 2 9.73683 2ZM13.6316 6V4H9.73683V6H13.6316ZM14.0795 15.88L15.4621 14.46L17.5263 16.59L19.5905 14.46L20.9731 15.88L18.8992 18L20.9731 20.12L19.5905 21.54L17.5263 19.41L15.4621 21.54L14.0795 20.12L16.1534 18L14.0795 15.88Z" fill="currentColor"/>
</svg>
