<svg width="24" height="24" viewBox="0 0 24 24" fill="none" xmlns="http://www.w3.org/2000/svg">
<path d="M10 2H14C14.5304 2 15.0391 2.21071 15.4142 2.58579C15.7893 2.96086 16 3.46957 16 4V6H20C20.5304 6 21.0391 6.21071 21.4142 6.58579C21.7893 6.96086 22 7.46957 22 8V13.03C21.5 12.23 20.8 11.54 20 11V8H4V19H10.5C10.81 19.75 11.26 20.42 11.81 21H4C2.89 21 2 20.1 2 19V8C2 6.89 2.89 6 4 6H8V4C8 2.89 8.89 2 10 2ZM14 6V4H10V6H14ZM20.31 18.9L23.39 22L22 23.39L18.88 20.32C18.19 20.75 17.37 21 16.5 21C14 21 12 19 12 16.5C12 14 14 12 16.5 12C19 12 21 14 21 16.5C21 17.38 20.75 18.21 20.31 18.9ZM16.5 19C17.163 19 17.7989 18.7366 18.2678 18.2678C18.7366 17.7989 19 17.163 19 16.5C19 15.837 18.7366 15.2011 18.2678 14.7322C17.7989 14.2634 17.163 14 16.5 14C15.837 14 15.2011 14.2634 14.7322 14.7322C14.2634 15.2011 14 15.837 14 16.5C14 17.163 14.2634 17.7989 14.7322 18.2678C15.2011 18.7366 15.837 19 16.5 19Z" fill="currentColor"/>
</svg>
