<svg width="37" height="38" viewBox="0 0 37 38" fill="none" xmlns="http://www.w3.org/2000/svg">
<path d="M15.4167 3.16663H21.5833C22.4011 3.16663 23.1854 3.50026 23.7636 4.09412C24.3418 4.68799 24.6667 5.49344 24.6667 6.33329V9.49996H30.8333C31.6511 9.49996 32.4354 9.83359 33.0136 10.4275C33.5918 11.0213 33.9167 11.8268 33.9167 12.6666V21.4225C33.0225 20.5833 31.9896 19.95 30.8333 19.5383V12.6666H6.16668V30.0833H18.6233C18.8083 31.2233 19.1938 32.2841 19.7333 33.25H6.16668C5.34893 33.25 4.56467 32.9163 3.98643 32.3225C3.40819 31.7286 3.08334 30.9231 3.08334 30.0833V12.6666C3.08334 11.8268 3.40819 11.0213 3.98643 10.4275C4.56467 9.83359 5.34893 9.49996 6.16668 9.49996H12.3333V6.33329C12.3333 5.49344 12.6582 4.68799 13.2364 4.09412C13.8147 3.50026 14.5989 3.16663 15.4167 3.16663ZM21.5833 9.49996V6.33329H15.4167V9.49996H21.5833ZM22.2925 25.1433L24.4817 22.895L27.75 26.2675L31.0183 22.895L33.2075 25.1433L29.9238 28.5L33.2075 31.8566L31.0183 34.105L27.75 30.7325L24.4817 34.105L22.2925 31.8566L25.5763 28.5L22.2925 25.1433Z" fill="currentColor"/>
</svg>
