<svg width="37" height="37" viewBox="0 0 37 37" fill="none" xmlns="http://www.w3.org/2000/svg">
<path d="M30.8333 6.16663H6.16667C5.34892 6.16663 4.56466 6.49148 3.98642 7.06971C3.40819 7.64795 3.08334 8.43221 3.08334 9.24996V27.75C3.08334 28.5677 3.40819 29.352 3.98642 29.9302C4.56466 30.5084 5.34892 30.8333 6.16667 30.8333H30.8333C31.6511 30.8333 32.4353 30.5084 33.0136 29.9302C33.5918 29.352 33.9167 28.5677 33.9167 27.75V9.24996C33.9167 8.43221 33.5918 7.64795 33.0136 7.06971C32.4353 6.49148 31.6511 6.16663 30.8333 6.16663ZM11.9633 25.0366L9.78959 27.2104C7.36917 24.8208 6.16667 21.6604 6.16667 18.5C6.16667 15.3395 7.36917 12.1791 9.77417 9.77413L11.9479 11.9479C10.1596 13.767 9.25 16.1258 9.25 18.5C9.25 20.8741 10.1596 23.2329 11.9633 25.0366ZM18.5 24.6666C16.8645 24.6666 15.296 24.0169 14.1395 22.8605C12.983 21.704 12.3333 20.1355 12.3333 18.5C12.3333 16.8645 12.983 15.2959 14.1395 14.1395C15.296 12.983 16.8645 12.3333 18.5 12.3333C20.1355 12.3333 21.704 12.983 22.8605 14.1395C24.017 15.2959 24.6667 16.8645 24.6667 18.5C24.6667 20.1355 24.017 21.704 22.8605 22.8605C21.704 24.0169 20.1355 24.6666 18.5 24.6666ZM27.2258 27.2258L25.0521 25.052C26.8404 23.2329 27.75 20.8741 27.75 18.5C27.75 16.1258 26.8404 13.767 25.0367 11.9633L27.2104 9.78954C29.6308 12.1791 30.8333 15.3395 30.8333 18.5C30.8333 21.6604 29.6308 24.8208 27.2258 27.2258ZM18.5 15.4166C17.6823 15.4166 16.898 15.7415 16.3198 16.3197C15.7415 16.898 15.4167 17.6822 15.4167 18.5C15.4167 19.3177 15.7415 20.102 16.3198 20.6802C16.898 21.2584 17.6823 21.5833 18.5 21.5833C19.3178 21.5833 20.102 21.2584 20.6802 20.6802C21.2585 20.102 21.5833 19.3177 21.5833 18.5C21.5833 17.6822 21.2585 16.898 20.6802 16.3197C20.102 15.7415 19.3178 15.4166 18.5 15.4166Z" fill="currentColor"/>
</svg>
