<svg width="16" height="20" viewBox="0 0 16 20" fill="none" xmlns="http://www.w3.org/2000/svg">
<mask id="mask0_2390_8" style="mask-type:alpha" maskUnits="userSpaceOnUse" x="-4" y="-2" width="25" height="24">
<rect x="-3.41875" y="-2" width="24" height="24" fill="currentColor"/>
</mask>
<g mask="url(#mask0_2390_8)">
<path d="M1.58125 20V16C1.58125 15.6167 1.68125 15.2708 1.88125 14.9625C2.08125 14.6542 2.34792 14.4083 2.68125 14.225L7.58125 11.75V10L4.10625 11.725C3.90625 11.825 3.69792 11.9 3.48125 11.95C3.26458 12 3.04792 12.025 2.83125 12.025C2.31458 12.025 1.82708 11.8917 1.36875 11.625C0.910417 11.3583 0.55625 10.975 0.30625 10.475C0.0729167 10.025 -0.0270833 9.54583 0.00625 9.0375C0.0395833 8.52917 0.197917 8.05833 0.48125 7.625L3.58125 3L1.58125 0H7.58125C9.79792 0 11.6854 0.775 13.2438 2.325C14.8021 3.875 15.5813 5.76667 15.5813 8V20H1.58125ZM3.58125 18H13.5813V8C13.5813 6.33333 12.9979 4.91667 11.8313 3.75C10.6646 2.58333 9.24792 2 7.58125 2H5.33125L5.98125 3L2.15625 8.75C2.07292 8.88333 2.02708 9.02083 2.01875 9.1625C2.01042 9.30417 2.03958 9.44167 2.10625 9.575C2.18958 9.75833 2.30208 9.87917 2.44375 9.9375C2.58542 9.99583 2.72292 10.025 2.85625 10.025C2.90625 10.025 3.03125 10 3.23125 9.95L9.58125 6.75V13L3.58125 16V18Z" fill="currentColor"/>
</g>
</svg>
