<svg width="38" height="37" viewBox="0 0 38 37" fill="none" xmlns="http://www.w3.org/2000/svg">
<path d="M23.75 35.4583H20.5833V32.375H23.75V35.4583ZM30.0833 32.375H26.9167V35.4583H30.0833V32.375ZM23.75 26.2083H20.5833V29.2916H23.75V26.2083ZM11.0833 32.375H7.91667V35.4583H11.0833V32.375ZM11.0833 26.2083H7.91667V29.2916H11.0833V26.2083ZM30.0833 26.2083H26.9167V29.2916H30.0833V26.2083ZM23.75 20.0416H20.5833V23.125H23.75V20.0416ZM30.0833 20.0416H26.9167V23.125H30.0833V20.0416ZM33.25 13.875C34.0898 13.875 34.8953 14.1998 35.4892 14.778C36.083 15.3563 36.4167 16.1405 36.4167 16.9583V35.4583H33.25V16.9583H17.4167V35.4583H14.25V23.125H4.75V35.4583H1.58333V23.125C1.58333 22.3072 1.91696 21.523 2.51083 20.9447C3.10469 20.3665 3.91015 20.0416 4.75 20.0416H14.25V16.9583C14.25 16.1405 14.5836 15.3563 15.1775 14.778C15.7714 14.1998 16.5768 13.875 17.4167 13.875V10.7916C17.4167 9.97388 17.7503 9.18962 18.3442 8.61138C18.938 8.03314 19.7435 7.70829 20.5833 7.70829H23.75V1.54163H26.9167V7.70829H30.0833C30.9232 7.70829 31.7286 8.03314 32.3225 8.61138C32.9164 9.18962 33.25 9.97388 33.25 10.7916V13.875ZM30.0833 13.875V10.7916H20.5833V13.875H30.0833Z" fill="currentColor"/>
</svg>
