<svg width="25" height="24" viewBox="0 0 25 24" fill="none" xmlns="http://www.w3.org/2000/svg">
<path d="M15.4054 23H13.3514V21H15.4054V23ZM19.5135 21H17.4595V23H19.5135V21ZM15.4054 17H13.3514V19H15.4054V17ZM7.18919 21H5.13514V23H7.18919V21ZM7.18919 17H5.13514V19H7.18919V17ZM19.5135 17H17.4595V19H19.5135V17ZM15.4054 13H13.3514V15H15.4054V13ZM19.5135 13H17.4595V15H19.5135V13ZM21.5676 9C22.1123 9 22.6348 9.21071 23.02 9.58579C23.4052 9.96086 23.6216 10.4696 23.6216 11V23H21.5676V11H11.2973V23H9.24324V15H3.08108V23H1.02703V15C1.02703 14.4696 1.24344 13.9609 1.62865 13.5858C2.01386 13.2107 2.53631 13 3.08108 13H9.24324V11C9.24324 10.4696 9.45965 9.96086 9.84486 9.58579C10.2301 9.21071 10.7525 9 11.2973 9V7C11.2973 6.46957 11.5137 5.96086 11.8989 5.58579C12.2841 5.21071 12.8066 5 13.3514 5H15.4054V1H17.4595V5H19.5135C20.0583 5 20.5807 5.21071 20.9659 5.58579C21.3512 5.96086 21.5676 6.46957 21.5676 7V9ZM19.5135 9V7H13.3514V9H19.5135Z" fill="currentColor"/>
</svg>
