<svg width="35" height="35" viewBox="0 0 35 35" fill="none" xmlns="http://www.w3.org/2000/svg">
<g clip-path="url(#clip0_30_190)">
<path d="M23.1933 19.0322L20.0998 22.1257L28.8442 30.8702L31.9378 27.7766L23.1933 19.0322Z" fill="currentColor"/>
<path d="M25.5208 14.5834C28.3354 14.5834 30.625 12.2938 30.625 9.47921C30.625 8.63337 30.3917 7.84587 30.0271 7.14587L26.0896 11.0834L23.9167 8.91046L27.8542 4.97296C27.1542 4.60837 26.3667 4.37504 25.5208 4.37504C22.7062 4.37504 20.4167 6.66462 20.4167 9.47921C20.4167 10.0771 20.5333 10.6459 20.7229 11.1709L18.025 13.8688L15.4292 11.273L16.4646 10.2375L14.4083 8.18129L17.5 5.08962C15.7937 3.38337 13.0229 3.38337 11.3167 5.08962L6.15417 10.2521L8.21042 12.3084H4.09792L3.0625 13.3438L8.225 18.5063L9.26042 17.4709V13.3438L11.3167 15.4L12.3521 14.3646L14.9479 16.9605L4.14167 27.7667L7.23333 30.8584L23.8292 14.2771C24.3542 14.4667 24.9229 14.5834 25.5208 14.5834Z" fill="currentColor"/>
</g>
<defs>
<clipPath id="clip0_30_190">
<rect width="35" height="35" fill="white"/>
</clipPath>
</defs>
</svg>
