<svg width="25" height="24" viewBox="0 0 25 24" fill="none" xmlns="http://www.w3.org/2000/svg">
<path d="M13.3514 2.03003V2.05003V4.05003C17.86 4.59003 21.0541 8.58003 20.4995 12.97C20.027 16.61 17.0897 19.5 13.3514 19.93V21.93C19 21.38 23.1081 16.5 22.5432 11C22.0811 6.25003 18.2092 2.50003 13.3514 2.03003ZM11.2973 2.06003C9.2946 2.25003 7.38433 3.00003 5.82325 4.26003L7.29189 5.74003C8.44216 4.84003 9.82865 4.26003 11.2973 4.06003V2.06003ZM4.37514 5.67003C3.08108 7.19003 2.31081 9.04003 2.10541 11H4.15946C4.3546 9.58003 4.92973 8.23003 5.84379 7.10003L4.37514 5.67003ZM2.11568 13C2.32108 14.96 3.11189 16.81 4.38541 18.33L5.84379 16.9C4.94 15.77 4.3546 14.42 4.16973 13H2.11568ZM7.29189 18.37L5.82325 19.74C7.37406 21 9.28433 21.79 11.2973 22V20C9.83892 19.82 8.45244 19.25 7.29189 18.37ZM17.2746 15.19L13.0535 11.08C13.4746 10.04 13.2384 8.82003 12.3551 7.97003C11.4308 7.06003 10.0443 6.88003 8.92487 7.38003L10.9173 9.32003L9.53081 10.68L7.48703 8.73003C6.93243 9.82003 7.18919 11.17 8.09298 12.08C8.97622 12.94 10.2292 13.16 11.2973 12.76L15.5184 16.86C15.7032 17.05 15.9805 17.05 16.1654 16.86L17.2335 15.83C17.4595 15.65 17.4595 15.33 17.2746 15.19Z" fill="currentColor"/>
</svg>
