<svg width="38" height="37" viewBox="0 0 38 37" fill="none" xmlns="http://www.w3.org/2000/svg">
<path d="M20.5833 3.12964V3.16047V6.24381C27.5342 7.07631 32.4583 13.2276 31.6033 19.9955C30.875 25.6071 26.3467 30.0626 20.5833 30.7255V33.8088C29.2917 32.9609 35.625 25.4376 34.7542 16.9584C34.0417 9.63547 28.0725 3.85422 20.5833 3.12964ZM17.4167 3.17589C14.3292 3.46881 11.3842 4.62506 8.9775 6.56756L11.2417 8.84922C13.015 7.46172 15.1525 6.56756 17.4167 6.25922V3.17589ZM6.745 8.74131C4.75 11.0846 3.5625 13.9367 3.24583 16.9584H6.4125C6.71333 14.7692 7.6 12.688 9.00917 10.9459L6.745 8.74131ZM3.26167 20.0417C3.57833 23.0634 4.7975 25.9155 6.76083 28.2588L9.00917 26.0542C7.61583 24.3121 6.71333 22.2309 6.42833 20.0417H3.26167ZM11.2417 28.3205L8.9775 30.4326C11.3683 32.3751 14.3133 33.593 17.4167 33.9167V30.8334C15.1683 30.5559 13.0308 29.6771 11.2417 28.3205ZM26.6317 23.418L20.1242 17.0817C20.7733 15.4784 20.4092 13.5976 19.0475 12.2871C17.6225 10.8842 15.485 10.6067 13.7592 11.3776L16.8308 14.3684L14.6933 16.4651L11.5425 13.4588C10.6875 15.1392 11.0833 17.2205 12.4767 18.6234C13.8383 19.9492 15.77 20.2884 17.4167 19.6717L23.9242 25.9926C24.2092 26.2855 24.6367 26.2855 24.9217 25.9926L26.5683 24.4046C26.9167 24.1271 26.9167 23.6338 26.6317 23.418Z" fill="currentColor"/>
</svg>
