<svg width="44" height="44" viewBox="0 0 44 44" fill="none" xmlns="http://www.w3.org/2000/svg">
<path d="M22 38.5C17.3861 38.5 13.4823 37.7893 10.2887 36.3678C7.095 34.9464 5.49878 33.2127 5.5 31.1667V12.8333C5.5 10.8167 7.11211 9.09028 10.3363 7.65417C13.5606 6.21806 17.4484 5.5 22 5.5C26.5528 5.5 30.4413 6.21806 33.6655 7.65417C36.8897 9.09028 38.5012 10.8167 38.5 12.8333V31.1667C38.5 33.2139 36.9032 34.9482 33.7095 36.3697C30.5158 37.7911 26.6127 38.5012 22 38.5ZM22 16.5458C24.7194 16.5458 27.4542 16.1559 30.2042 15.3762C32.9542 14.5964 34.4972 13.7641 34.8333 12.8792C34.4972 11.9931 32.9615 11.1528 30.2262 10.3583C27.4908 9.56389 24.7488 9.16667 22 9.16667C19.2194 9.16667 16.4921 9.55656 13.8178 10.3363C11.1436 11.1161 9.59322 11.9631 9.16667 12.8773C9.59445 13.794 11.1454 14.6343 13.8197 15.3982C16.4939 16.1621 19.2207 16.5446 22 16.5458ZM22 25.6667C23.2833 25.6667 24.5208 25.6056 25.7125 25.4833C26.9042 25.3611 28.0427 25.1851 29.128 24.9553C30.2121 24.7268 31.2357 24.4444 32.1988 24.1083C33.1619 23.7722 34.0401 23.3903 34.8333 22.9625V17.4625C34.0389 17.8903 33.1601 18.2722 32.197 18.6083C31.2339 18.9444 30.2103 19.2274 29.1262 19.4572C28.0421 19.6857 26.9042 19.8611 25.7125 19.9833C24.5208 20.1056 23.2833 20.1667 22 20.1667C20.7167 20.1667 19.4639 20.1056 18.2417 19.9833C17.0194 19.8611 15.8657 19.6851 14.7803 19.4553C13.6962 19.2268 12.6806 18.9444 11.7333 18.6083C10.7861 18.2722 9.93056 17.8903 9.16667 17.4625V22.9625C9.93056 23.3903 10.7861 23.7722 11.7333 24.1083C12.6806 24.4444 13.6968 24.7274 14.7822 24.9572C15.8663 25.1857 17.0194 25.3611 18.2417 25.4833C19.4639 25.6056 20.7167 25.6667 22 25.6667ZM22 34.8333C23.4056 34.8333 24.8337 34.7264 26.2845 34.5125C27.7353 34.2986 29.0724 34.0157 30.2958 33.6637C31.5181 33.3129 32.5417 32.9157 33.3667 32.472C34.1917 32.0283 34.6806 31.5779 34.8333 31.1208V26.6292C34.0389 27.0569 33.1601 27.4389 32.197 27.775C31.2339 28.1111 30.2103 28.3941 29.1262 28.6238C28.0421 28.8524 26.9042 29.0278 25.7125 29.15C24.5208 29.2722 23.2833 29.3333 22 29.3333C20.7167 29.3333 19.4639 29.2722 18.2417 29.15C17.0194 29.0278 15.8657 28.8518 14.7803 28.622C13.6962 28.3934 12.6806 28.1111 11.7333 27.775C10.7861 27.4389 9.93056 27.0569 9.16667 26.6292V31.1667C9.31945 31.625 9.801 32.0681 10.6113 32.4958C11.4217 32.9236 12.4373 33.3135 13.6583 33.6655C14.8806 34.0163 16.225 34.2986 17.6917 34.5125C19.1583 34.7264 20.5944 34.8333 22 34.8333Z" fill="currentColor"/>
</svg>
