<svg width="20" height="20" viewBox="0 0 20 20" fill="none" xmlns="http://www.w3.org/2000/svg">
<mask id="mask0_2385_18" style="mask-type:alpha" maskUnits="userSpaceOnUse" x="-2" y="-2" width="24" height="24">
<rect x="-2" y="-2" width="24" height="24" fill="currentColor"/>
</mask>
<g mask="url(#mask0_2385_18)">
<path d="M6.8 8.95L8.95 6.775L7.55 5.35L6.45 6.45L5.05 5.05L6.125 3.95L5 2.825L2.825 5L6.8 8.95ZM15 17.175L17.175 15L16.05 13.875L14.95 14.95L13.55 13.55L14.625 12.45L13.2 11.05L11.05 13.2L15 17.175ZM5.25 19H1V14.75L5.375 10.375L0 5L5 0L10.4 5.4L14.175 1.6C14.375 1.4 14.6 1.25 14.85 1.15C15.1 1.05 15.3583 1 15.625 1C15.8917 1 16.15 1.05 16.4 1.15C16.65 1.25 16.875 1.4 17.075 1.6L18.4 2.95C18.6 3.15 18.75 3.375 18.85 3.625C18.95 3.875 19 4.13333 19 4.4C19 4.66667 18.95 4.92083 18.85 5.1625C18.75 5.40417 18.6 5.625 18.4 5.825L14.625 9.625L20 15L15 20L9.625 14.625L5.25 19ZM3 17H4.4L14.2 7.225L12.775 5.8L3 15.6V17Z" fill="currentColor"/>
</g>
</svg>
