<svg width="10" height="16" viewBox="0 0 10 16" fill="none" xmlns="http://www.w3.org/2000/svg">
<mask id="mask0_433_113" style="mask-type:alpha" maskUnits="userSpaceOnUse" x="-7" y="-4" width="24" height="24">
<rect x="-7" y="-4" width="24" height="24" fill="currentColor"/>
</mask>
<g mask="url(#mask0_433_113)">
<path d="M2 16C1.45 16 0.979167 15.8042 0.5875 15.4125C0.195833 15.0208 0 14.55 0 14C0 13.45 0.195833 12.9792 0.5875 12.5875C0.979167 12.1958 1.45 12 2 12C2.55 12 3.02083 12.1958 3.4125 12.5875C3.80417 12.9792 4 13.45 4 14C4 14.55 3.80417 15.0208 3.4125 15.4125C3.02083 15.8042 2.55 16 2 16ZM8 16C7.45 16 6.97917 15.8042 6.5875 15.4125C6.19583 15.0208 6 14.55 6 14C6 13.45 6.19583 12.9792 6.5875 12.5875C6.97917 12.1958 7.45 12 8 12C8.55 12 9.02083 12.1958 9.4125 12.5875C9.80417 12.9792 10 13.45 10 14C10 14.55 9.80417 15.0208 9.4125 15.4125C9.02083 15.8042 8.55 16 8 16ZM2 10C1.45 10 0.979167 9.80417 0.5875 9.4125C0.195833 9.02083 0 8.55 0 8C0 7.45 0.195833 6.97917 0.5875 6.5875C0.979167 6.19583 1.45 6 2 6C2.55 6 3.02083 6.19583 3.4125 6.5875C3.80417 6.97917 4 7.45 4 8C4 8.55 3.80417 9.02083 3.4125 9.4125C3.02083 9.80417 2.55 10 2 10ZM8 10C7.45 10 6.97917 9.80417 6.5875 9.4125C6.19583 9.02083 6 8.55 6 8C6 7.45 6.19583 6.97917 6.5875 6.5875C6.97917 6.19583 7.45 6 8 6C8.55 6 9.02083 6.19583 9.4125 6.5875C9.80417 6.97917 10 7.45 10 8C10 8.55 9.80417 9.02083 9.4125 9.4125C9.02083 9.80417 8.55 10 8 10ZM2 4C1.45 4 0.979167 3.80417 0.5875 3.4125C0.195833 3.02083 0 2.55 0 2C0 1.45 0.195833 0.979167 0.5875 0.5875C0.979167 0.195833 1.45 0 2 0C2.55 0 3.02083 0.195833 3.4125 0.5875C3.80417 0.979167 4 1.45 4 2C4 2.55 3.80417 3.02083 3.4125 3.4125C3.02083 3.80417 2.55 4 2 4ZM8 4C7.45 4 6.97917 3.80417 6.5875 3.4125C6.19583 3.02083 6 2.55 6 2C6 1.45 6.19583 0.979167 6.5875 0.5875C6.97917 0.195833 7.45 0 8 0C8.55 0 9.02083 0.195833 9.4125 0.5875C9.80417 0.979167 10 1.45 10 2C10 2.55 9.80417 3.02083 9.4125 3.4125C9.02083 3.80417 8.55 4 8 4Z" fill="currentColor"/>
</g>
</svg>
