<svg width="37" height="38" viewBox="0 0 37 38" fill="none" xmlns="http://www.w3.org/2000/svg">
<g clip-path="url(#clip0_30_73)">
<path d="M33.0071 18.335L19.1321 4.08496C18.5771 3.51496 17.8063 3.16663 16.9583 3.16663H6.16667C4.47084 3.16663 3.08334 4.59163 3.08334 6.33329V17.4166C3.08334 18.2875 3.4225 19.0791 3.99292 19.665L17.8679 33.915C18.4229 34.485 19.1938 34.8333 20.0417 34.8333C20.8896 34.8333 21.6604 34.485 22.2154 33.8991L33.0071 22.8158C33.5775 22.2458 33.9167 21.4541 33.9167 20.5833C33.9167 19.7125 33.5621 18.905 33.0071 18.335ZM20.0417 31.6825L6.16667 17.4166V6.33329H16.9583V6.31746L30.8333 20.5675L20.0417 31.6825Z" fill="currentColor"/>
<path d="M10.0208 12.6666C11.298 12.6666 12.3333 11.6033 12.3333 10.2916C12.3333 8.97995 11.298 7.91663 10.0208 7.91663C8.74368 7.91663 7.70834 8.97995 7.70834 10.2916C7.70834 11.6033 8.74368 12.6666 10.0208 12.6666Z" fill="currentColor"/>
</g>
<defs>
<clipPath id="clip0_30_73">
<rect width="37" height="38" fill="white"/>
</clipPath>
</defs>
</svg>
