<svg width="24" height="24" viewBox="0 0 24 24" fill="none" xmlns="http://www.w3.org/2000/svg">
<g clip-path="url(#clip0_30_73)">
<path d="M20.8466 11.58L12.0834 2.58C11.7329 2.22 11.246 2 10.7105 2H3.89473C2.82368 2 1.94736 2.9 1.94736 4V11C1.94736 11.55 2.16158 12.05 2.52184 12.42L11.285 21.42C11.6355 21.78 12.1224 22 12.6579 22C13.1934 22 13.6803 21.78 14.0308 21.41L20.8466 14.41C21.2068 14.05 21.421 13.55 21.421 13C21.421 12.45 21.1971 11.94 20.8466 11.58ZM12.6579 20.01L3.89473 11V4H10.7105V3.99L19.4737 12.99L12.6579 20.01Z" fill="currentColor"/>
<path d="M6.32895 8C7.13558 8 7.78948 7.32843 7.78948 6.5C7.78948 5.67157 7.13558 5 6.32895 5C5.52232 5 4.86842 5.67157 4.86842 6.5C4.86842 7.32843 5.52232 8 6.32895 8Z" fill="currentColor"/>
</g>
<defs>
<clipPath id="clip0_30_73">
<rect width="23.3684" height="24" fill="white"/>
</clipPath>
</defs>
</svg>
