<svg width="23" height="16" viewBox="0 0 23 16" fill="none" xmlns="http://www.w3.org/2000/svg">
<mask id="mask0_1394_7" style="mask-type:alpha" maskUnits="userSpaceOnUse" x="-1" y="-4" width="24" height="25">
<rect x="-1" y="-3.77502" width="24" height="24" fill="currentColor"/>
</mask>
<g mask="url(#mask0_1394_7)">
<path d="M2.975 16C2.14167 16 1.4375 15.7083 0.8625 15.125C0.2875 14.5417 0 13.8333 0 13V7C0 6.45 0.195833 5.97917 0.5875 5.5875C0.979167 5.19583 1.45 5 2 5H7V0H12C12.8333 0 13.5417 0.291667 14.125 0.875C14.7083 1.45833 15 2.16667 15 3V7H15.975V5.825C15.975 5.55833 16.0292 5.3 16.1375 5.05C16.2458 4.8 16.3917 4.58333 16.575 4.4L18.5 2.5L22.975 11H17.975C17.425 11 16.9542 10.8042 16.5625 10.4125C16.1708 10.0208 15.975 9.55 15.975 9H14.975V10.75C15.3083 11.0333 15.5625 11.3708 15.7375 11.7625C15.9125 12.1542 16 12.5667 16 13C16 13.8333 15.7083 14.5417 15.125 15.125C14.5417 15.7083 13.8333 16 13 16C12.3667 16 11.7917 15.8167 11.275 15.45C10.7583 15.0833 10.3833 14.6 10.15 14H5.825C5.59167 14.6 5.21667 15.0833 4.7 15.45C4.18333 15.8167 3.60833 16 2.975 16ZM2.975 14C3.25833 14 3.5 13.9042 3.7 13.7125C3.9 13.5208 4 13.2833 4 13C4 12.7167 3.90417 12.4792 3.7125 12.2875C3.52083 12.0958 3.28333 12 3 12C2.71667 12 2.47917 12.0958 2.2875 12.2875C2.09583 12.4792 2 12.7167 2 13C2 13.2833 2.09167 13.5208 2.275 13.7125C2.45833 13.9042 2.69167 14 2.975 14ZM13 14C13.2833 14 13.5208 13.9042 13.7125 13.7125C13.9042 13.5208 14 13.2833 14 13C14 12.7167 13.9042 12.4792 13.7125 12.2875C13.5208 12.0958 13.2833 12 13 12C12.7167 12 12.4792 12.0958 12.2875 12.2875C12.0958 12.4792 12 12.7167 12 13C12 13.2833 12.0958 13.5208 12.2875 13.7125C12.4792 13.9042 12.7167 14 13 14ZM7 12V7H2V10.175C2.16667 10.1083 2.32917 10.0625 2.4875 10.0375C2.64583 10.0125 2.81667 10 3 10C3.63333 10 4.20833 10.1833 4.725 10.55C5.24167 10.9167 5.60833 11.4 5.825 12H7ZM9 12H10.15C10.3667 11.4 10.7375 10.9167 11.2625 10.55C11.7875 10.1833 12.3667 10 13 10V9H9V12ZM19.675 9L18 5.825V9H19.675ZM9 7H13V3C13 2.71667 12.9042 2.47917 12.7125 2.2875C12.5208 2.09583 12.2833 2 12 2H9V7ZM7 12V10V10.175V7V12Z" fill="currentColor"/>
</g>
</svg>
