<svg width="24" height="24" viewBox="0 0 24 24" fill="none" xmlns="http://www.w3.org/2000/svg">
<path d="M13 21H18V23H5.99999V21H11V19.95C9.41447 19.7908 7.88993 19.2551 6.55335 18.3875C5.21677 17.5199 4.10684 16.3454 3.31599 14.962L5.05299 13.97C5.66378 15.0373 6.51237 15.9494 7.53285 16.6355C8.55333 17.3215 9.71823 17.7631 10.9371 17.926C12.1559 18.0888 13.3959 17.9684 14.5607 17.5743C15.7254 17.1801 16.7837 16.5227 17.6532 15.6532C18.5227 14.7837 19.1801 13.7255 19.5742 12.5607C19.9684 11.3959 20.0887 10.156 19.9259 8.93712C19.7631 7.71828 19.3215 6.55337 18.6354 5.53289C17.9493 4.51241 17.0372 3.66382 15.97 3.05304L16.963 1.31604C18.4938 2.19071 19.7661 3.45473 20.6507 4.97985C21.5353 6.50497 22.0008 8.23693 22 10C22 15.185 18.054 19.449 13 19.95V21ZM12 17C11.0807 17 10.1705 16.819 9.32121 16.4672C8.47193 16.1154 7.70026 15.5998 7.05025 14.9498C6.40024 14.2998 5.88462 13.5281 5.53284 12.6788C5.18105 11.8295 4.99999 10.9193 4.99999 10C4.99999 9.08079 5.18105 8.17054 5.53284 7.32126C5.88462 6.47198 6.40024 5.7003 7.05025 5.05029C7.70026 4.40028 8.47193 3.88467 9.32121 3.53288C10.1705 3.1811 11.0807 3.00004 12 3.00004C13.8565 3.00004 15.637 3.73754 16.9497 5.05029C18.2625 6.36305 19 8.14352 19 10C19 11.8566 18.2625 13.637 16.9497 14.9498C15.637 16.2625 13.8565 17 12 17ZM12 15C13.3261 15 14.5978 14.4733 15.5355 13.5356C16.4732 12.5979 17 11.3261 17 10C17 8.67396 16.4732 7.40219 15.5355 6.46451C14.5978 5.52682 13.3261 5.00004 12 5.00004C10.6739 5.00004 9.40214 5.52682 8.46446 6.46451C7.52678 7.40219 6.99999 8.67396 6.99999 10C6.99999 11.3261 7.52678 12.5979 8.46446 13.5356C9.40214 14.4733 10.6739 15 12 15Z" fill="currentColor"/>
</svg>
