<svg width="44" height="44" viewBox="0 0 44 44" fill="none" xmlns="http://www.w3.org/2000/svg">
<path d="M23.8333 38.5001H33V42.1667H11V38.5001H20.1667V36.5751C17.2599 36.2832 14.4649 35.301 12.0145 33.7104C9.56409 32.1197 7.52921 29.9666 6.07933 27.4304L9.26383 25.6117C10.3836 27.5683 11.9393 29.2405 13.8102 30.4983C15.6811 31.7561 17.8168 32.5657 20.0513 32.8642C22.2858 33.1627 24.5591 32.9421 26.6946 32.2195C28.83 31.4969 30.7701 30.2917 32.3642 28.6976C33.9583 27.1035 35.1635 25.1634 35.8861 23.0279C36.6087 20.8925 36.8293 18.6192 36.5308 16.3847C36.2323 14.1502 35.4227 12.0145 34.1649 10.1436C32.9071 8.27274 31.235 6.71699 29.2783 5.59722L31.0988 2.41272C33.9054 4.01629 36.2379 6.33365 37.8597 9.1297C39.4815 11.9258 40.3349 15.101 40.3333 18.3334C40.3333 27.8392 33.099 35.6566 23.8333 36.5751V38.5001ZM22 31.1667C20.3147 31.1667 18.6459 30.8348 17.0889 30.1898C15.5319 29.5449 14.1171 28.5996 12.9255 27.4079C11.7338 26.2162 10.7885 24.8015 10.1435 23.2445C9.49861 21.6875 9.16666 20.0187 9.16666 18.3334C9.16666 16.6481 9.49861 14.9793 10.1435 13.4223C10.7885 11.8653 11.7338 10.4505 12.9255 9.25885C14.1171 8.06716 15.5319 7.12187 17.0889 6.47693C18.6459 5.832 20.3147 5.50005 22 5.50005C25.4036 5.50005 28.6678 6.85213 31.0745 9.25885C33.4813 11.6656 34.8333 14.9298 34.8333 18.3334C34.8333 21.737 33.4813 25.0012 31.0745 27.4079C28.6678 29.8146 25.4036 31.1667 22 31.1667ZM22 27.5001C24.4312 27.5001 26.7627 26.5343 28.4818 24.8152C30.2009 23.0961 31.1667 20.7645 31.1667 18.3334C31.1667 15.9022 30.2009 13.5707 28.4818 11.8516C26.7627 10.1325 24.4312 9.16672 22 9.16672C19.5688 9.16672 17.2373 10.1325 15.5182 11.8516C13.7991 13.5707 12.8333 15.9022 12.8333 18.3334C12.8333 20.7645 13.7991 23.0961 15.5182 24.8152C17.2373 26.5343 19.5688 27.5001 22 27.5001Z" fill="currentColor"/>
</svg>
