<svg width="24" height="24" viewBox="0 0 24 24" fill="none" xmlns="http://www.w3.org/2000/svg">
<g clip-path="url(#clip0_30_81)">
<path d="M5.84211 15C6.91316 15 7.78947 15.9 7.78947 17C7.78947 18.1 6.91316 19 5.84211 19C4.77105 19 3.89474 18.1 3.89474 17C3.89474 15.9 4.77105 15 5.84211 15ZM5.84211 13C3.7 13 1.94737 14.8 1.94737 17C1.94737 19.2 3.7 21 5.84211 21C7.98421 21 9.73684 19.2 9.73684 17C9.73684 14.8 7.98421 13 5.84211 13ZM11.6842 5C12.7553 5 13.6316 5.9 13.6316 7C13.6316 8.1 12.7553 9 11.6842 9C10.6132 9 9.73684 8.1 9.73684 7C9.73684 5.9 10.6132 5 11.6842 5ZM11.6842 3C9.54211 3 7.78947 4.8 7.78947 7C7.78947 9.2 9.54211 11 11.6842 11C13.8263 11 15.5789 9.2 15.5789 7C15.5789 4.8 13.8263 3 11.6842 3ZM17.5263 15C18.5974 15 19.4737 15.9 19.4737 17C19.4737 18.1 18.5974 19 17.5263 19C16.4553 19 15.5789 18.1 15.5789 17C15.5789 15.9 16.4553 15 17.5263 15ZM17.5263 13C15.3842 13 13.6316 14.8 13.6316 17C13.6316 19.2 15.3842 21 17.5263 21C19.6684 21 21.4211 19.2 21.4211 17C21.4211 14.8 19.6684 13 17.5263 13Z" fill="currentColor"/>
</g>
<defs>
<clipPath id="clip0_30_81">
<rect width="23.3684" height="24" fill="white"/>
</clipPath>
</defs>
</svg>
