<svg width="37" height="38" viewBox="0 0 37 38" fill="none" xmlns="http://www.w3.org/2000/svg">
<g clip-path="url(#clip0_30_81)">
<path d="M9.25 23.75C10.9458 23.75 12.3333 25.175 12.3333 26.9167C12.3333 28.6583 10.9458 30.0833 9.25 30.0833C7.55417 30.0833 6.16667 28.6583 6.16667 26.9167C6.16667 25.175 7.55417 23.75 9.25 23.75ZM9.25 20.5833C5.85833 20.5833 3.08333 23.4333 3.08333 26.9167C3.08333 30.4 5.85833 33.25 9.25 33.25C12.6417 33.25 15.4167 30.4 15.4167 26.9167C15.4167 23.4333 12.6417 20.5833 9.25 20.5833ZM18.5 7.91667C20.1958 7.91667 21.5833 9.34167 21.5833 11.0833C21.5833 12.825 20.1958 14.25 18.5 14.25C16.8042 14.25 15.4167 12.825 15.4167 11.0833C15.4167 9.34167 16.8042 7.91667 18.5 7.91667ZM18.5 4.75C15.1083 4.75 12.3333 7.6 12.3333 11.0833C12.3333 14.5667 15.1083 17.4167 18.5 17.4167C21.8917 17.4167 24.6667 14.5667 24.6667 11.0833C24.6667 7.6 21.8917 4.75 18.5 4.75ZM27.75 23.75C29.4458 23.75 30.8333 25.175 30.8333 26.9167C30.8333 28.6583 29.4458 30.0833 27.75 30.0833C26.0542 30.0833 24.6667 28.6583 24.6667 26.9167C24.6667 25.175 26.0542 23.75 27.75 23.75ZM27.75 20.5833C24.3583 20.5833 21.5833 23.4333 21.5833 26.9167C21.5833 30.4 24.3583 33.25 27.75 33.25C31.1417 33.25 33.9167 30.4 33.9167 26.9167C33.9167 23.4333 31.1417 20.5833 27.75 20.5833Z" fill="currentColor"/>
</g>
<defs>
<clipPath id="clip0_30_81">
<rect width="37" height="38" fill="white"/>
</clipPath>
</defs>
</svg>
