<svg width="38" height="38" viewBox="0 0 38 38" fill="none" xmlns="http://www.w3.org/2000/svg">
<path d="M27.9617 17.7333C27.5975 17.2583 27.1542 16.8467 26.7425 16.435C25.6817 15.485 24.4783 14.8042 23.465 13.8067C21.1058 11.495 20.5833 7.67917 22.0875 4.75C20.5833 5.11417 19.2692 5.9375 18.145 6.84C14.0442 10.1333 12.4292 15.9442 14.3608 20.9317C14.4242 21.09 14.4875 21.2483 14.4875 21.4542C14.4875 21.8025 14.25 22.1192 13.9333 22.2458C13.5692 22.4042 13.1892 22.3092 12.8883 22.0558C12.7933 21.9767 12.73 21.8975 12.6667 21.7867C10.8775 19.5225 10.5925 16.2767 11.7958 13.68C9.15166 15.8333 7.71083 19.475 7.91667 22.9108C8.01167 23.7025 8.10667 24.4942 8.37583 25.2858C8.5975 26.2358 9.025 27.1858 9.5 28.025C11.21 30.7642 14.1708 32.7275 17.3533 33.1233C20.7417 33.5508 24.3675 32.9333 26.9642 30.59C29.8617 27.9617 30.875 23.75 29.3867 20.14L29.1808 19.7283C28.8483 19 27.9617 17.7333 27.9617 17.7333ZM22.9583 27.7083C22.515 28.0883 21.7867 28.5 21.2167 28.6583C19.4433 29.2917 17.67 28.405 16.625 27.36C18.5092 26.9167 19.6333 25.5233 19.9658 24.1142C20.235 22.8475 19.7283 21.8025 19.5225 20.5833C19.3325 19.4117 19.3642 18.4142 19.7917 17.3217C20.0925 17.9233 20.4092 18.525 20.7892 19C22.0083 20.5833 23.9242 21.28 24.3358 23.4333C24.3992 23.655 24.4308 23.8767 24.4308 24.1142C24.4783 25.4125 23.9083 26.8375 22.9583 27.7083Z" fill="currentColor"/>
</svg>
