<svg width="37" height="38" viewBox="0 0 37 38" fill="none" xmlns="http://www.w3.org/2000/svg">
<path d="M18.5 14.25C19.7266 14.25 20.903 14.7505 21.7704 15.6413C22.6377 16.5321 23.125 17.7403 23.125 19C23.125 20.2598 22.6377 21.468 21.7704 22.3588C20.903 23.2496 19.7266 23.75 18.5 23.75C17.2734 23.75 16.097 23.2496 15.2296 22.3588C14.3623 21.468 13.875 20.2598 13.875 19C13.875 17.7403 14.3623 16.5321 15.2296 15.6413C16.097 14.7505 17.2734 14.25 18.5 14.25ZM27.5342 30.5742C25.0212 33.5984 22.015 35.5459 18.5 36.4167C14.5533 35.4509 11.2542 33.1392 8.6025 29.4975C5.95083 25.8717 4.625 21.85 4.625 17.4167V7.91671L18.5 1.58337L32.375 7.91671V17.4167C32.375 21.2009 31.3883 24.7159 29.415 27.9775L24.9287 23.37C25.7304 22.1192 26.2083 20.5834 26.2083 19C26.2083 16.9004 25.3962 14.8868 23.9506 13.4021C22.505 11.9174 20.5444 11.0834 18.5 11.0834C16.4556 11.0834 14.495 11.9174 13.0494 13.4021C11.6038 14.8868 10.7917 16.9004 10.7917 19C10.7917 21.0997 11.6038 23.1133 13.0494 24.598C14.495 26.0826 16.4556 26.9167 18.5 26.9167C20.0417 26.9167 21.5371 26.4259 22.755 25.6025L27.5342 30.5742Z" fill="currentColor"/>
</svg>
