<svg width="38" height="38" viewBox="0 0 38 38" fill="none" xmlns="http://www.w3.org/2000/svg">
<g clip-path="url(#clip0_30_88)">
<path d="M19 9.50004C20.7417 9.50004 22.1667 10.925 22.1667 12.6667C22.1667 14.4084 20.7417 15.8334 19 15.8334C17.2583 15.8334 15.8333 14.4084 15.8333 12.6667C15.8333 10.925 17.2583 9.50004 19 9.50004ZM19 25.3334C23.275 25.3334 28.1833 27.3759 28.5 28.5H9.49999C9.86416 27.36 14.7408 25.3334 19 25.3334ZM19 6.33337C15.5008 6.33337 12.6667 9.16754 12.6667 12.6667C12.6667 16.1659 15.5008 19 19 19C22.4992 19 25.3333 16.1659 25.3333 12.6667C25.3333 9.16754 22.4992 6.33337 19 6.33337ZM19 22.1667C14.7725 22.1667 6.33333 24.2884 6.33333 28.5V31.6667H31.6667V28.5C31.6667 24.2884 23.2275 22.1667 19 22.1667Z" fill="currentColor"/>
</g>
<defs>
<clipPath id="clip0_30_88">
<rect width="38" height="38" fill="white"/>
</clipPath>
</defs>
</svg>
