<svg width="24" height="24" viewBox="0 0 24 24" fill="none" xmlns="http://www.w3.org/2000/svg">
<path d="M11.6842 9C12.4589 9 13.2019 9.31607 13.7497 9.87868C14.2975 10.4413 14.6053 11.2044 14.6053 12C14.6053 12.7956 14.2975 13.5587 13.7497 14.1213C13.2019 14.6839 12.4589 15 11.6842 15C10.9095 15 10.1665 14.6839 9.61871 14.1213C9.07091 13.5587 8.76316 12.7956 8.76316 12C8.76316 11.2044 9.07091 10.4413 9.61871 9.87868C10.1665 9.31607 10.9095 9 11.6842 9ZM17.39 19.31C15.8029 21.22 13.9042 22.45 11.6842 23C9.19158 22.39 7.10789 20.93 5.43316 18.63C3.75842 16.34 2.92105 13.8 2.92105 11V5L11.6842 1L20.4474 5V11C20.4474 13.39 19.8242 15.61 18.5779 17.67L15.7445 14.76C16.2508 13.97 16.5526 13 16.5526 12C16.5526 10.6739 16.0397 9.40215 15.1267 8.46447C14.2137 7.52678 12.9754 7 11.6842 7C10.393 7 9.15472 7.52678 8.24172 8.46447C7.32871 9.40215 6.81579 10.6739 6.81579 12C6.81579 13.3261 7.32871 14.5979 8.24172 15.5355C9.15472 16.4732 10.393 17 11.6842 17C12.6579 17 13.6024 16.69 14.3716 16.17L17.39 19.31Z" fill="currentColor"/>
</svg>
