<svg width="37" height="38" viewBox="0 0 37 38" fill="none" xmlns="http://www.w3.org/2000/svg">
<path d="M20.0417 30.0833H21.5833C21.9922 30.0833 22.3843 30.2501 22.6735 30.5471C22.9626 30.844 23.125 31.2467 23.125 31.6667H33.9167V34.8333H23.125C23.125 35.2533 22.9626 35.656 22.6735 35.9529C22.3843 36.2499 21.9922 36.4167 21.5833 36.4167H15.4167C15.0078 36.4167 14.6157 36.2499 14.3265 35.9529C14.0374 35.656 13.875 35.2533 13.875 34.8333H3.08333V31.6667H13.875C13.875 31.2467 14.0374 30.844 14.3265 30.5471C14.6157 30.2501 15.0078 30.0833 15.4167 30.0833H16.9583V26.9167H6.16666C5.75779 26.9167 5.36566 26.7499 5.07654 26.4529C4.78742 26.156 4.62499 25.7533 4.62499 25.3333V19C4.62499 18.5801 4.78742 18.1773 5.07654 17.8804C5.36566 17.5835 5.75779 17.4167 6.16666 17.4167H30.8333C31.2422 17.4167 31.6343 17.5835 31.9235 17.8804C32.2126 18.1773 32.375 18.5801 32.375 19V25.3333C32.375 25.7533 32.2126 26.156 31.9235 26.4529C31.6343 26.7499 31.2422 26.9167 30.8333 26.9167H20.0417V30.0833ZM6.16666 4.75H30.8333C31.2422 4.75 31.6343 4.91681 31.9235 5.21375C32.2126 5.51068 32.375 5.91341 32.375 6.33333V12.6667C32.375 13.0866 32.2126 13.4893 31.9235 13.7863C31.6343 14.0832 31.2422 14.25 30.8333 14.25H6.16666C5.75779 14.25 5.36566 14.0832 5.07654 13.7863C4.78742 13.4893 4.62499 13.0866 4.62499 12.6667V6.33333C4.62499 5.91341 4.78742 5.51068 5.07654 5.21375C5.36566 4.91681 5.75779 4.75 6.16666 4.75ZM13.875 11.0833H15.4167V7.91667H13.875V11.0833ZM13.875 23.75H15.4167V20.5833H13.875V23.75ZM7.70833 7.91667V11.0833H10.7917V7.91667H7.70833ZM7.70833 20.5833V23.75H10.7917V20.5833H7.70833Z" fill="currentColor"/>
</svg>
