<svg width="24" height="24" viewBox="0 0 24 24" fill="none" xmlns="http://www.w3.org/2000/svg">
<path d="M12.6579 19H13.6316C13.8898 19 14.1375 19.1054 14.3201 19.2929C14.5027 19.4804 14.6053 19.7348 14.6053 20H21.4211V22H14.6053C14.6053 22.2652 14.5027 22.5196 14.3201 22.7071C14.1375 22.8946 13.8898 23 13.6316 23H9.73685C9.47861 23 9.23095 22.8946 9.04835 22.7071C8.86575 22.5196 8.76316 22.2652 8.76316 22H1.94737V20H8.76316C8.76316 19.7348 8.86575 19.4804 9.04835 19.2929C9.23095 19.1054 9.47861 19 9.73685 19H10.7105V17H3.89474C3.6365 17 3.38884 16.8946 3.20624 16.7071C3.02364 16.5196 2.92106 16.2652 2.92106 16V12C2.92106 11.7348 3.02364 11.4804 3.20624 11.2929C3.38884 11.1054 3.6365 11 3.89474 11H19.4737C19.7319 11 19.9796 11.1054 20.1622 11.2929C20.3448 11.4804 20.4474 11.7348 20.4474 12V16C20.4474 16.2652 20.3448 16.5196 20.1622 16.7071C19.9796 16.8946 19.7319 17 19.4737 17H12.6579V19ZM3.89474 3H19.4737C19.7319 3 19.9796 3.10536 20.1622 3.29289C20.3448 3.48043 20.4474 3.73478 20.4474 4V8C20.4474 8.26522 20.3448 8.51957 20.1622 8.70711C19.9796 8.89464 19.7319 9 19.4737 9H3.89474C3.6365 9 3.38884 8.89464 3.20624 8.70711C3.02364 8.51957 2.92106 8.26522 2.92106 8V4C2.92106 3.73478 3.02364 3.48043 3.20624 3.29289C3.38884 3.10536 3.6365 3 3.89474 3ZM8.76316 7H9.73685V5H8.76316V7ZM8.76316 15H9.73685V13H8.76316V15ZM4.86842 5V7H6.81579V5H4.86842ZM4.86842 13V15H6.81579V13H4.86842Z" fill="currentColor"/>
</svg>
