<svg width="25" height="24" viewBox="0 0 25 24" fill="none" xmlns="http://www.w3.org/2000/svg">
<path d="M13.2178 15.07L10.6092 12.56L10.64 12.53C12.427 10.59 13.7005 8.36 14.4503 6H17.4595V4H10.2703V2H8.21622V4H1.02703V6H12.4989C11.8108 7.92 10.7222 9.75 9.24324 11.35C8.28811 10.32 7.4973 9.19 6.87081 8H4.81676C5.56649 9.63 6.59351 11.17 7.8773 12.56L2.64973 17.58L4.10811 19L9.24324 14L12.4373 17.11L13.2178 15.07ZM19 10H16.9459L12.3243 22H14.3784L15.5286 19H20.407L21.5676 22H23.6216L19 10ZM16.3092 17L17.973 12.67L19.6368 17H16.3092Z" fill="currentColor"/>
</svg>
