<svg width="38" height="37" viewBox="0 0 38 37" fill="none" xmlns="http://www.w3.org/2000/svg">
<path d="M20.3775 23.233L16.3558 19.3634L16.4033 19.3171C19.1583 16.3263 21.1217 12.8884 22.2775 9.25004H26.9167V6.16671H15.8333V3.08337H12.6667V6.16671H1.58333V9.25004H19.2692C18.2083 12.21 16.53 15.0313 14.25 17.498C12.7775 15.91 11.5583 14.168 10.5925 12.3334H7.42583C8.58167 14.8463 10.165 17.2205 12.1442 19.3634L4.085 27.1025L6.33333 29.2917L14.25 21.5834L19.1742 26.378L20.3775 23.233ZM29.2917 15.4167H26.125L19 33.9167H22.1667L23.94 29.2917H31.4608L33.25 33.9167H36.4167L29.2917 15.4167ZM25.1433 26.2084L27.7083 19.533L30.2733 26.2084H25.1433Z" fill="currentColor"/>
</svg>
