<svg width="24" height="24" viewBox="0 0 24 24" fill="none" xmlns="http://www.w3.org/2000/svg">
<g clip-path="url(#clip0_2297_7)">
<path d="M17.0687 10.8821L22.4274 5.26103L21.2415 4.01624L13.8559 11.7621L18.1701 16.2866L19.357 15.0419L17.0687 12.642H23.9195V10.8821H17.0687Z" fill="currentColor"/>
<path d="M16.2593 6.02887L15.0724 4.78504L12.7852 7.18392V0H11.1062V7.18392L5.28056 1.07407L4.09366 2.3179L11.9452 10.5534L16.2593 6.02887Z" fill="currentColor"/>
<path d="M5.74938 7.68359L4.56248 8.92839L6.85072 11.3282H0V13.0881H6.85072L1.10225 19.117L2.28915 20.3608L10.0635 12.2082L5.74938 7.68359Z" fill="currentColor"/>
<path d="M7.65997 17.9403L8.84687 19.1852L11.1342 16.7854V23.9701H12.8131V16.7854L18.7039 22.9645L19.8908 21.7196L11.9741 13.4167L7.65997 17.9403Z" fill="currentColor"/>
</g>
<defs>
<clipPath id="clip0_2297_7">
<rect width="24" height="24" fill="white"/>
</clipPath>
</defs>
</svg>
