<svg width="172" height="164" viewBox="0 0 172 164" fill="none" xmlns="http://www.w3.org/2000/svg">
<path d="M122.326 74.3612L160.73 35.9504L152.231 27.4443L99.3008 80.3742L130.219 111.292L138.725 102.786L122.326 86.3871H171.423V74.3612H122.326Z" fill="currentColor"/>
<path d="M116.525 41.1973L108.019 32.6978L91.6271 49.0901V0H79.5946V49.0901L37.844 7.33951L29.3379 15.839L85.6075 72.1152L116.525 41.1973Z" fill="currentColor"/>
<path d="M41.2039 52.5044L32.6978 61.0105L49.0968 77.4094H0V89.4353H49.0968L7.89948 130.633L16.4056 139.132L72.1219 83.4223L41.2039 52.5044Z" fill="currentColor"/>
<path d="M54.8965 122.592L63.4026 131.099L79.7948 114.7V163.796H91.8274V114.7L134.045 156.924L142.551 148.417L85.8144 91.6812L54.8965 122.592Z" fill="currentColor"/>
</svg>
