<svg width="24" height="24" viewBox="0 0 24 24" fill="none" xmlns="http://www.w3.org/2000/svg">
<path d="M17.09 10.8957L22.4554 5.26759L21.268 4.02125L13.8732 11.7768L18.1928 16.307L19.3811 15.0606L17.09 12.6578H23.9493V10.8957H17.09Z" fill="currentColor"/>
<path d="M16.2796 6.0364L15.0912 4.79101L12.8011 7.19288V0H11.1201V7.19288L5.28714 1.07541L4.09877 2.32079L11.9601 10.5666L16.2796 6.0364Z" fill="currentColor"/>
<path d="M5.75655 7.69318L4.56818 8.93953L6.85926 11.3424H0V13.1044H6.85926L1.10363 19.1409L2.29201 20.3862L10.0761 12.2234L5.75655 7.69318Z" fill="currentColor"/>
<path d="M7.66953 17.9627L8.85791 19.2091L11.148 16.8063V24H12.8291V16.8063L18.7273 22.9931L19.9156 21.7466L11.989 13.4335L7.66953 17.9627Z" fill="currentColor"/>
</svg>
