<svg width="24" height="24" viewBox="0 0 24 24" fill="none" xmlns="http://www.w3.org/2000/svg">
<g clip-path="url(#clip0_2305_7)">
<mask id="mask0_2305_7" style="mask-type:luminance" maskUnits="userSpaceOnUse" x="0" y="0" width="24" height="24">
<path d="M0 0.0294189H23.9705V23.9999H0V0.0294189Z" fill="white"/>
</mask>
<g mask="url(#mask0_2305_7)">
<path d="M23.5188 10.9474L13.0527 0.482086C12.9094 0.338625 12.7393 0.224814 12.552 0.147162C12.3647 0.0695099 12.1639 0.029541 11.9612 0.029541C11.7584 0.029541 11.5577 0.0695099 11.3704 0.147162C11.1831 0.224814 11.013 0.338625 10.8697 0.482086L8.69615 2.65565L11.4525 5.412C11.7766 5.30195 12.1249 5.28476 12.4583 5.3624C12.7916 5.44003 13.0965 5.60939 13.3386 5.8513C13.5819 6.09502 13.7519 6.40222 13.8291 6.73788C13.9062 7.07354 13.8875 7.42413 13.775 7.74965L16.4315 10.4063C16.7569 10.2932 17.1077 10.2742 17.4435 10.3513C17.7793 10.4285 18.0866 10.5987 18.3301 10.8425C18.5006 11.0131 18.6359 11.2155 18.7283 11.4384C18.8206 11.6612 18.8681 11.9001 18.8681 12.1413C18.8681 12.3825 18.8206 12.6213 18.7283 12.8441C18.6359 13.067 18.5006 13.2695 18.3301 13.44C17.9854 13.7845 17.5181 13.978 17.0308 13.978C16.5435 13.978 16.0762 13.7845 15.7315 13.44C15.475 13.1836 15.3002 12.857 15.229 12.5014C15.1579 12.1458 15.1937 11.7771 15.3319 11.4417L12.8536 8.96426V15.4852C13.1152 15.6144 13.3422 15.8041 13.5159 16.0385C13.6896 16.273 13.8049 16.5454 13.8523 16.8333C13.8998 17.1211 13.8779 17.4162 13.7886 17.6939C13.6993 17.9717 13.5451 18.2241 13.3388 18.4304C13.1683 18.601 12.9658 18.7363 12.743 18.8286C12.5202 18.9209 12.2813 18.9685 12.0401 18.9685C11.7989 18.9685 11.5601 18.9209 11.3372 18.8286C11.1144 18.7363 10.9119 18.601 10.7414 18.4304C10.5708 18.2599 10.4354 18.0574 10.3431 17.8345C10.2507 17.6117 10.2032 17.3728 10.2032 17.1316C10.2032 16.8903 10.2507 16.6515 10.3431 16.4286C10.4354 16.2057 10.5708 16.0032 10.7414 15.8327C10.9134 15.6602 11.1181 15.5238 11.3435 15.4312V8.85026C11.1181 8.75824 10.9134 8.6221 10.7414 8.44983C10.4838 8.19191 10.3087 7.86325 10.2382 7.5056C10.1678 7.14795 10.2053 6.77744 10.3459 6.44113L7.62815 3.72339L0.452152 10.8983C0.308728 11.0417 0.194955 11.2119 0.117332 11.3993C0.0397087 11.5866 -0.000244141 11.7874 -0.000244141 11.9902C-0.000244141 12.193 0.0397087 12.3938 0.117332 12.5812C0.194955 12.7685 0.308728 12.9387 0.452152 13.0821L10.9185 23.5487C11.2081 23.838 11.6007 24.0005 12.01 24.0005C12.4193 24.0005 12.8119 23.838 13.1015 23.5487L23.5188 13.1311C23.808 12.8414 23.9704 12.4487 23.9704 12.0393C23.9704 11.6299 23.808 11.2372 23.5188 10.9474Z" fill="currentColor"/>
</g>
</g>
<defs>
<clipPath id="clip0_2305_7">
<rect width="24" height="24" fill="white"/>
</clipPath>
</defs>
</svg>
