<svg width="37" height="37" viewBox="0 0 37 37" fill="none" xmlns="http://www.w3.org/2000/svg">
<g clip-path="url(#clip0_30_64)">
<path d="M18.5 3.08337C9.99 3.08337 3.08333 9.99004 3.08333 18.5C3.08333 27.01 9.99 33.9167 18.5 33.9167C27.01 33.9167 33.9167 27.01 33.9167 18.5C33.9167 9.99004 27.01 3.08337 18.5 3.08337ZM6.16666 18.5C6.16666 17.5596 6.29 16.6346 6.49041 15.7559L13.8596 23.125V24.6667C13.8596 26.3625 15.2471 27.75 16.9429 27.75V30.7255C10.8842 29.9546 6.16666 24.7746 6.16666 18.5ZM27.5804 26.825C27.1796 25.5763 26.0387 24.6667 24.6512 24.6667H23.1096V20.0417C23.1096 19.1938 22.4158 18.5 21.5679 18.5H12.3179V15.4167H15.4012C16.2492 15.4167 16.9429 14.723 16.9429 13.875V10.7917H20.0262C21.7221 10.7917 23.1096 9.40421 23.1096 7.70837V7.07629C27.6267 8.89546 30.8333 13.3355 30.8333 18.5C30.8333 21.7067 29.5846 24.6359 27.5804 26.825Z" fill="currentColor"/>
</g>
<defs>
<clipPath id="clip0_30_64">
<rect width="37" height="37" fill="white"/>
</clipPath>
</defs>
</svg>
