<svg width="37" height="37" viewBox="0 0 37 37" fill="none" xmlns="http://www.w3.org/2000/svg">
<g clip-path="url(#clip0_30_106)">
<path d="M26.2083 18.5C26.2083 14.245 22.755 10.7917 18.5 10.7917C14.245 10.7917 10.7917 14.245 10.7917 18.5C10.7917 22.755 14.245 26.2083 18.5 26.2083C22.755 26.2083 26.2083 22.755 26.2083 18.5ZM18.5 23.125C15.9563 23.125 13.875 21.0437 13.875 18.5C13.875 15.9563 15.9563 13.875 18.5 13.875C21.0437 13.875 23.125 15.9563 23.125 18.5C23.125 21.0437 21.0437 23.125 18.5 23.125ZM7.70833 23.125H4.625V29.2917C4.625 30.9875 6.0125 32.375 7.70833 32.375H13.875V29.2917H7.70833V23.125ZM7.70833 7.70833H13.875V4.625H7.70833C6.0125 4.625 4.625 6.0125 4.625 7.70833V13.875H7.70833V7.70833ZM29.2917 4.625H23.125V7.70833H29.2917V13.875H32.375V7.70833C32.375 6.0125 30.9875 4.625 29.2917 4.625ZM29.2917 29.2917H23.125V32.375H29.2917C30.9875 32.375 32.375 30.9875 32.375 29.2917V23.125H29.2917V29.2917Z" fill="currentColor"/>
</g>
<defs>
<clipPath id="clip0_30_106">
<rect width="37" height="37" fill="white"/>
</clipPath>
</defs>
</svg>
