<svg width="3" height="15" viewBox="0 0 3 15" fill="none" xmlns="http://www.w3.org/2000/svg">
<mask id="mask0_1301_20" style="mask-type:alpha" maskUnits="userSpaceOnUse" x="-11" y="-5" width="25" height="25">
<rect x="-10.5" y="-4.73071" width="24" height="24" fill="currentColor"/>
</mask>
<g mask="url(#mask0_1301_20)">
<path d="M1.5 14.5385C1.0875 14.5385 0.734417 14.3916 0.44075 14.0978C0.146917 13.8041 0 13.451 0 13.0385C0 12.626 0.146917 12.2728 0.44075 11.979C0.734417 11.6853 1.0875 11.5385 1.5 11.5385C1.9125 11.5385 2.26558 11.6853 2.55925 11.979C2.85308 12.2728 3 12.626 3 13.0385C3 13.451 2.85308 13.8041 2.55925 14.0978C2.26558 14.3916 1.9125 14.5385 1.5 14.5385ZM1.5 8.76925C1.0875 8.76925 0.734417 8.62233 0.44075 8.3285C0.146917 8.03483 0 7.68175 0 7.26925C0 6.85675 0.146917 6.50367 0.44075 6.21C0.734417 5.91617 1.0875 5.76925 1.5 5.76925C1.9125 5.76925 2.26558 5.91617 2.55925 6.21C2.85308 6.50367 3 6.85675 3 7.26925C3 7.68175 2.85308 8.03483 2.55925 8.3285C2.26558 8.62233 1.9125 8.76925 1.5 8.76925ZM1.5 3C1.0875 3 0.734417 2.85317 0.44075 2.5595C0.146917 2.26567 0 1.9125 0 1.5C0 1.0875 0.146917 0.734417 0.44075 0.44075C0.734417 0.146917 1.0875 0 1.5 0C1.9125 0 2.26558 0.146917 2.55925 0.44075C2.85308 0.734417 3 1.0875 3 1.5C3 1.9125 2.85308 2.26567 2.55925 2.5595C2.26558 2.85317 1.9125 3 1.5 3Z" fill="currentColor"/>
</g>
</svg>
