<svg width="24" height="24" viewBox="0 0 24 24" fill="none" xmlns="http://www.w3.org/2000/svg">
<path d="M19.4737 2H3.89473C3.37826 2 2.88294 2.21071 2.51774 2.58579C2.15253 2.96086 1.94736 3.46957 1.94736 4V22L5.8421 18H19.4737C19.9902 18 20.4855 17.7893 20.8507 17.4142C21.2159 17.0391 21.421 16.5304 21.421 16V4C21.421 3.46957 21.2159 2.96086 20.8507 2.58579C20.4855 2.21071 19.9902 2 19.4737 2ZM7.78947 14H5.8421V12H7.78947V14ZM7.78947 11H5.8421V9H7.78947V11ZM7.78947 8H5.8421V6H7.78947V8ZM14.6053 14H9.73684V12H14.6053V14ZM17.5263 11H9.73684V9H17.5263V11ZM17.5263 8H9.73684V6H17.5263V8Z" fill="currentColor"/>
</svg>
