<svg width="37" height="38" viewBox="0 0 37 38" fill="none" xmlns="http://www.w3.org/2000/svg">
<path d="M30.8333 3.16663H6.16667C5.34892 3.16663 4.56466 3.50026 3.98642 4.09412C3.40819 4.68799 3.08334 5.49344 3.08334 6.33329V34.8333L9.25 28.5H30.8333C31.6511 28.5 32.4353 28.1663 33.0136 27.5725C33.5918 26.9786 33.9167 26.1731 33.9167 25.3333V6.33329C33.9167 5.49344 33.5918 4.68799 33.0136 4.09412C32.4353 3.50026 31.6511 3.16663 30.8333 3.16663ZM12.3333 22.1666H9.25V19H12.3333V22.1666ZM12.3333 17.4166H9.25V14.25H12.3333V17.4166ZM12.3333 12.6666H9.25V9.49996H12.3333V12.6666ZM23.125 22.1666H15.4167V19H23.125V22.1666ZM27.75 17.4166H15.4167V14.25H27.75V17.4166ZM27.75 12.6666H15.4167V9.49996H27.75V12.6666Z" fill="currentColor"/>
</svg>
