<svg width="37" height="38" viewBox="0 0 37 38" fill="none" xmlns="http://www.w3.org/2000/svg">
<g clip-path="url(#clip0_30_114)">
<path d="M18.5 17.4167C16.8042 17.4167 15.4167 18.8417 15.4167 20.5833C15.4167 22.325 16.8042 23.75 18.5 23.75C20.1958 23.75 21.5833 22.325 21.5833 20.5833C21.5833 18.8417 20.1958 17.4167 18.5 17.4167ZM27.75 20.5833C27.75 15.3425 23.6029 11.0833 18.5 11.0833C13.3971 11.0833 9.25 15.3425 9.25 20.5833C9.25 24.0983 11.1154 27.1542 13.875 28.8008L15.4167 26.0458C13.5821 24.9375 12.3333 22.9267 12.3333 20.5833C12.3333 17.0842 15.0929 14.25 18.5 14.25C21.9071 14.25 24.6667 17.0842 24.6667 20.5833C24.6667 22.9267 23.4179 24.9375 21.5833 26.0458L23.125 28.8008C25.8846 27.1542 27.75 24.0983 27.75 20.5833ZM18.5 4.75C9.99 4.75 3.08333 11.8433 3.08333 20.5833C3.08333 26.4417 6.18208 31.54 10.7762 34.2792L12.3179 31.54C8.64874 29.3392 6.16666 25.27 6.16666 20.5833C6.16666 13.585 11.6858 7.91667 18.5 7.91667C25.3142 7.91667 30.8333 13.585 30.8333 20.5833C30.8333 25.27 28.3512 29.3392 24.6667 31.54L26.2083 34.2792C30.8179 31.54 33.9167 26.4417 33.9167 20.5833C33.9167 11.8433 27.01 4.75 18.5 4.75Z" fill="currentColor"/>
</g>
<defs>
<clipPath id="clip0_30_114">
<rect width="37" height="38" fill="white"/>
</clipPath>
</defs>
</svg>
