<svg width="24" height="24" viewBox="0 0 24 24" fill="none" xmlns="http://www.w3.org/2000/svg">
<g clip-path="url(#clip0_30_114)">
<path d="M11.6842 11C10.6132 11 9.73685 11.9 9.73685 13C9.73685 14.1 10.6132 15 11.6842 15C12.7553 15 13.6316 14.1 13.6316 13C13.6316 11.9 12.7553 11 11.6842 11ZM17.5263 13C17.5263 9.69 14.9071 7 11.6842 7C8.46132 7 5.84211 9.69 5.84211 13C5.84211 15.22 7.02027 17.15 8.76316 18.19L9.73685 16.45C8.57816 15.75 7.78948 14.48 7.78948 13C7.78948 10.79 9.53237 9 11.6842 9C13.8361 9 15.579 10.79 15.579 13C15.579 14.48 14.7903 15.75 13.6316 16.45L14.6053 18.19C16.3482 17.15 17.5263 15.22 17.5263 13ZM11.6842 3C6.30948 3 1.94737 7.48 1.94737 13C1.94737 16.7 3.90448 19.92 6.80606 21.65L7.77974 19.92C5.46237 18.53 3.89474 15.96 3.89474 13C3.89474 8.58 7.38053 5 11.6842 5C15.9879 5 19.4737 8.58 19.4737 13C19.4737 15.96 17.9061 18.53 15.579 19.92L16.5526 21.65C19.464 19.92 21.4211 16.7 21.4211 13C21.4211 7.48 17.059 3 11.6842 3Z" fill="currentColor"/>
</g>
<defs>
<clipPath id="clip0_30_114">
<rect width="23.3684" height="24" fill="white"/>
</clipPath>
</defs>
</svg>
