<svg width="24" height="24" viewBox="0 0 24 24" fill="none" xmlns="http://www.w3.org/2000/svg">
<path fill-rule="evenodd" clip-rule="evenodd" d="M22.8967 23.7449L0 1.09177L1.10327 0.000246011L24 22.6534L22.8967 23.7449Z" fill="currentColor"/>
<path fill-rule="evenodd" clip-rule="evenodd" d="M0 22.6534L22.8967 0.000246011L24 1.09177L1.10327 23.7449L0 22.6534Z" fill="currentColor"/>
<path fill-rule="evenodd" clip-rule="evenodd" d="M18.6184 1.09172L11.9559 7.681L5.29887 1.09148L6.40241 0.000241324L11.9563 5.49799L17.5154 0L18.6184 1.09172Z" fill="currentColor"/>
<path fill-rule="evenodd" clip-rule="evenodd" d="M11.984 16.0722L12.5431 16.6254L18.6378 22.653L17.5347 23.7448L11.9842 18.2552L6.43676 23.7446L5.3334 22.6532L11.984 16.0722Z" fill="currentColor"/>
<path d="M13.0786 1.30978L11.8858 0.129648L10.6929 1.30978L11.8858 2.48992L13.0786 1.30978Z" fill="currentColor"/>
<path d="M13.0796 22.6635L11.8868 21.4834L10.694 22.6635L11.8868 23.8437L13.0796 22.6635Z" fill="currentColor"/>
</svg>
