<svg width="38" height="38" viewBox="0 0 38 38" fill="none" xmlns="http://www.w3.org/2000/svg">
<g clip-path="url(#clip0_30_123)">
<path d="M19 19C17.2583 19 15.8333 17.575 15.8333 15.8333C15.8333 14.0916 17.2583 12.6666 19 12.6666C20.7417 12.6666 22.1667 14.0916 22.1667 15.8333C22.1667 17.575 20.7417 19 19 19ZM28.5 16.15C28.5 10.4025 24.3042 6.33329 19 6.33329C13.6958 6.33329 9.5 10.4025 9.5 16.15C9.5 19.855 12.5875 24.7633 19 30.6216C25.4125 24.7633 28.5 19.855 28.5 16.15ZM19 3.16663C25.65 3.16663 31.6667 8.26496 31.6667 16.15C31.6667 21.4066 27.4392 27.6291 19 34.8333C10.5608 27.6291 6.33333 21.4066 6.33333 16.15C6.33333 8.26496 12.35 3.16663 19 3.16663Z" fill="currentColor"/>
</g>
<defs>
<clipPath id="clip0_30_123">
<rect width="38" height="38" fill="white"/>
</clipPath>
</defs>
</svg>
