<svg width="18" height="21" viewBox="0 0 18 21" fill="none" xmlns="http://www.w3.org/2000/svg">
<mask id="mask0_2076_7" style="mask-type:alpha" maskUnits="userSpaceOnUse" x="-3" y="-1" width="24" height="24">
<rect x="-3" y="-1" width="24" height="24" fill="currentColor"/>
</mask>
<g mask="url(#mask0_2076_7)">
<path d="M9 21C7.75 21 6.57917 20.7625 5.4875 20.2875C4.39583 19.8125 3.44583 19.1708 2.6375 18.3625C1.82917 17.5542 1.1875 16.6042 0.7125 15.5125C0.2375 14.4208 0 13.25 0 12H2C2 13.95 2.67917 15.6042 4.0375 16.9625C5.39583 18.3208 7.05 19 9 19C10.95 19 12.6042 18.3208 13.9625 16.9625C15.3208 15.6042 16 13.95 16 12C16 10.05 15.3208 8.39583 13.9625 7.0375C12.6042 5.67917 10.95 5 9 5H8.85L10.4 6.55L9 8L5 4L9 0L10.4 1.45L8.85 3H9C10.25 3 11.4208 3.2375 12.5125 3.7125C13.6042 4.1875 14.5542 4.82917 15.3625 5.6375C16.1708 6.44583 16.8125 7.39583 17.2875 8.4875C17.7625 9.57917 18 10.75 18 12C18 13.25 17.7625 14.4208 17.2875 15.5125C16.8125 16.6042 16.1708 17.5542 15.3625 18.3625C14.5542 19.1708 13.6042 19.8125 12.5125 20.2875C11.4208 20.7625 10.25 21 9 21Z" fill="currentColor"/>
</g>
</svg>
