<svg width="35" height="35" viewBox="0 0 35 35" fill="none" xmlns="http://www.w3.org/2000/svg">
<g clip-path="url(#clip0_30_168)">
<path d="M17.4854 2.91663C9.4354 2.91663 2.91666 9.44996 2.91666 17.5C2.91666 25.55 9.4354 32.0833 17.4854 32.0833C25.55 32.0833 32.0833 25.55 32.0833 17.5C32.0833 9.44996 25.55 2.91663 17.4854 2.91663ZM17.5 29.1666C11.0542 29.1666 5.83332 23.9458 5.83332 17.5C5.83332 11.0541 11.0542 5.83329 17.5 5.83329C23.9458 5.83329 29.1667 11.0541 29.1667 17.5C29.1667 23.9458 23.9458 29.1666 17.5 29.1666Z" fill="currentColor"/>
<path d="M18.2292 10.2084H16.0417V18.9584L23.6979 23.5521L24.7917 21.7584L18.2292 17.8646V10.2084Z" fill="currentColor"/>
</g>
<defs>
<clipPath id="clip0_30_168">
<rect width="35" height="35" fill="white"/>
</clipPath>
</defs>
</svg>
