<svg width="37" height="37" viewBox="0 0 37 37" fill="none" xmlns="http://www.w3.org/2000/svg">
<g clip-path="url(#clip0_30_140)">
<path d="M18.5 10.7917V4.625H3.08333V32.375H33.9167V10.7917H18.5ZM9.25 29.2917H6.16667V26.2083H9.25V29.2917ZM9.25 23.125H6.16667V20.0417H9.25V23.125ZM9.25 16.9583H6.16667V13.875H9.25V16.9583ZM9.25 10.7917H6.16667V7.70833H9.25V10.7917ZM15.4167 29.2917H12.3333V26.2083H15.4167V29.2917ZM15.4167 23.125H12.3333V20.0417H15.4167V23.125ZM15.4167 16.9583H12.3333V13.875H15.4167V16.9583ZM15.4167 10.7917H12.3333V7.70833H15.4167V10.7917ZM30.8333 29.2917H18.5V26.2083H21.5833V23.125H18.5V20.0417H21.5833V16.9583H18.5V13.875H30.8333V29.2917ZM27.75 16.9583H24.6667V20.0417H27.75V16.9583ZM27.75 23.125H24.6667V26.2083H27.75V23.125Z" fill="currentColor"/>
</g>
<defs>
<clipPath id="clip0_30_140">
<rect width="37" height="37" fill="white"/>
</clipPath>
</defs>
</svg>
