<svg width="24" height="24" viewBox="0 0 24 24" fill="none" xmlns="http://www.w3.org/2000/svg">
<path d="M6.21639 14.6433C6.21639 15.8057 5.27765 16.7452 4.11615 16.7452C2.95465 16.7452 2.01591 15.8057 2.01591 14.6433C2.01591 13.4809 2.95465 12.5414 4.11615 12.5414H6.21639V14.6433ZM7.26651 14.6433C7.26651 13.4809 8.20525 12.5414 9.36675 12.5414C10.5282 12.5414 11.467 13.4809 11.467 14.6433V19.8981C11.467 21.0605 10.5282 22 9.36675 22C8.20525 22 7.26651 21.0605 7.26651 19.8981V14.6433Z" fill="currentColor"/>
<path d="M9.36675 6.20382C8.20525 6.20382 7.26651 5.26433 7.26651 4.10191C7.26651 2.93949 8.20525 2 9.36675 2C10.5282 2 11.467 2.93949 11.467 4.10191V6.20382H9.36675ZM9.36675 7.2707C10.5282 7.2707 11.467 8.21019 11.467 9.37261C11.467 10.535 10.5282 11.4745 9.36675 11.4745H4.10024C2.93874 11.4745 2 10.535 2 9.37261C2 8.21019 2.93874 7.2707 4.10024 7.2707H9.36675Z" fill="currentColor"/>
<path d="M17.7836 9.37261C17.7836 8.21019 18.7224 7.2707 19.8839 7.2707C21.0453 7.2707 21.9841 8.21019 21.9841 9.37261C21.9841 10.535 21.0453 11.4745 19.8839 11.4745H17.7836V9.37261ZM16.7335 9.37261C16.7335 10.535 15.7947 11.4745 14.6333 11.4745C13.4718 11.4745 12.533 10.535 12.533 9.37261V4.10191C12.533 2.93949 13.4718 2 14.6333 2C15.7947 2 16.7335 2.93949 16.7335 4.10191V9.37261Z" fill="currentColor"/>
<path d="M14.6333 17.7962C15.7947 17.7962 16.7335 18.7357 16.7335 19.8981C16.7335 21.0605 15.7947 22 14.6333 22C13.4718 22 12.533 21.0605 12.533 19.8981V17.7962H14.6333ZM14.6333 16.7452C13.4718 16.7452 12.533 15.8057 12.533 14.6433C12.533 13.4809 13.4718 12.5414 14.6333 12.5414H19.8998C21.0613 12.5414 22 13.4809 22 14.6433C22 15.8057 21.0613 16.7452 19.8998 16.7452H14.6333Z" fill="currentColor"/>
</svg>
