<svg width="22" height="22" viewBox="0 0 22 22" fill="none" xmlns="http://www.w3.org/2000/svg">
<mask id="mask0_1755_103" style="mask-type:alpha" maskUnits="userSpaceOnUse" x="-1" y="-1" width="24" height="24">
<rect x="-1" y="-1" width="24" height="24" fill="currentColor"/>
</mask>
<g mask="url(#mask0_1755_103)">
<path d="M10 3V0H12V3H10ZM10 22V19H12V22H10ZM19 12V10H22V12H19ZM0 12V10H3V12H0ZM17.7 5.7L16.3 4.3L18.05 2.5L19.5 3.95L17.7 5.7ZM3.95 19.5L2.5 18.05L4.3 16.3L5.7 17.7L3.95 19.5ZM18.05 19.5L16.3 17.7L17.7 16.3L19.5 18.05L18.05 19.5ZM4.3 5.7L2.5 3.95L3.95 2.5L5.7 4.3L4.3 5.7ZM11 17C9.33333 17 7.91667 16.4167 6.75 15.25C5.58333 14.0833 5 12.6667 5 11C5 9.33333 5.58333 7.91667 6.75 6.75C7.91667 5.58333 9.33333 5 11 5C12.6667 5 14.0833 5.58333 15.25 6.75C16.4167 7.91667 17 9.33333 17 11C17 12.6667 16.4167 14.0833 15.25 15.25C14.0833 16.4167 12.6667 17 11 17ZM11 15C12.1167 15 13.0625 14.6125 13.8375 13.8375C14.6125 13.0625 15 12.1167 15 11C15 9.88333 14.6125 8.9375 13.8375 8.1625C13.0625 7.3875 12.1167 7 11 7C9.88333 7 8.9375 7.3875 8.1625 8.1625C7.3875 8.9375 7 9.88333 7 11C7 12.1167 7.3875 13.0625 8.1625 13.8375C8.9375 14.6125 9.88333 15 11 15Z" fill="currentColor"/>
</g>
</svg>
