<svg width="37" height="37" viewBox="0 0 37 37" fill="none" xmlns="http://www.w3.org/2000/svg">
<path d="M6.16667 1.54163H30.8333C31.2422 1.54163 31.6343 1.70405 31.9235 1.99317C32.2126 2.28229 32.375 2.67442 32.375 3.08329V9.24996C32.375 9.65884 32.2126 10.051 31.9235 10.3401C31.6343 10.6292 31.2422 10.7916 30.8333 10.7916H6.16667C5.75779 10.7916 5.36566 10.6292 5.07654 10.3401C4.78743 10.051 4.625 9.65884 4.625 9.24996V3.08329C4.625 2.67442 4.78743 2.28229 5.07654 1.99317C5.36566 1.70405 5.75779 1.54163 6.16667 1.54163ZM6.16667 13.875H30.8333C31.2422 13.875 31.6343 14.0374 31.9235 14.3265C32.2126 14.6156 32.375 15.0078 32.375 15.4166V21.5833C32.375 21.9922 32.2126 22.3843 31.9235 22.6734C31.6343 22.9625 31.2422 23.125 30.8333 23.125H6.16667C5.75779 23.125 5.36566 22.9625 5.07654 22.6734C4.78743 22.3843 4.625 21.9922 4.625 21.5833V15.4166C4.625 15.0078 4.78743 14.6156 5.07654 14.3265C5.36566 14.0374 5.75779 13.875 6.16667 13.875ZM6.16667 26.2083H30.8333C31.2422 26.2083 31.6343 26.3707 31.9235 26.6598C32.2126 26.949 32.375 27.3411 32.375 27.75V33.9166C32.375 34.3255 32.2126 34.7176 31.9235 35.0068C31.6343 35.2959 31.2422 35.4583 30.8333 35.4583H6.16667C5.75779 35.4583 5.36566 35.2959 5.07654 35.0068C4.78743 34.7176 4.625 34.3255 4.625 33.9166V27.75C4.625 27.3411 4.78743 26.949 5.07654 26.6598C5.36566 26.3707 5.75779 26.2083 6.16667 26.2083ZM13.875 7.70829H15.4167V4.62496H13.875V7.70829ZM13.875 20.0416H15.4167V16.9583H13.875V20.0416ZM13.875 32.375H15.4167V29.2916H13.875V32.375ZM7.70833 4.62496V7.70829H10.7917V4.62496H7.70833ZM7.70833 16.9583V20.0416H10.7917V16.9583H7.70833ZM7.70833 29.2916V32.375H10.7917V29.2916H7.70833Z" fill="currentColor"/>
</svg>
