<svg width="24" height="24" viewBox="0 0 24 24" fill="none" xmlns="http://www.w3.org/2000/svg">
<path fill-rule="evenodd" clip-rule="evenodd" d="M8.17664 7.00781V8.6648H9.83362V7.00781L8.17664 7.00781ZM11.4906 7.00781V8.6648L11.4906 10.3218H9.83362H8.17664H6.51965V8.66479H4.49243V7.00781H6.51965V5.35083H8.17664H9.83362H11.4906V7.00781ZM19.5076 7.00781H12.5417V8.66479H19.5076V7.00781ZM19.5076 16.9922H17.4803V18.6492H15.8234H14.1664H12.5094V16.9922V15.3352V13.6782H14.1664H15.8234H17.4803V15.3352H19.5076V16.9922ZM15.8234 15.3352L14.1664 15.3352V16.9922L15.8234 16.9922V15.3352ZM4.49243 16.9922L11.4583 16.9922V15.3352L4.49243 15.3352V16.9922Z" fill="currentColor"/>
</svg>
