<svg width="38" height="37" viewBox="0 0 38 37" fill="none" xmlns="http://www.w3.org/2000/svg">
<path d="M19 33.9167C16.7569 33.9167 14.6722 33.5249 12.7458 32.7412C10.8194 31.9575 9.14375 30.8719 7.71876 29.4844C6.29376 28.0969 5.17882 26.4653 4.37396 24.5896C3.5691 22.7139 3.16667 20.6841 3.16667 18.5C3.16667 16.3417 3.5691 14.3247 4.37396 12.449C5.17882 10.5733 6.29376 8.94171 7.71876 7.55421C9.14375 6.16671 10.8194 5.07469 12.7458 4.27817C14.6722 3.48164 16.7569 3.08337 19 3.08337C20.9792 3.08337 22.8264 3.39171 24.5417 4.00837C26.2569 4.62504 27.8007 5.47296 29.1729 6.55212L27.4708 8.20942C26.3097 7.31011 25.0167 6.61636 23.5917 6.12817C22.1667 5.63997 20.6361 5.39587 19 5.39587C15.1736 5.39587 11.974 6.64848 9.40105 9.15369C6.82813 11.6589 5.54167 14.7743 5.54167 18.5C5.54167 22.2257 6.82813 25.3412 9.40105 27.8464C11.974 30.3516 15.1736 31.6042 19 31.6042C22.8264 31.6042 26.026 30.3516 28.599 27.8464C31.1719 25.3412 32.4583 22.2257 32.4583 18.5C32.4583 17.7292 32.399 16.9776 32.2802 16.2454C32.1615 15.5131 31.9833 14.8 31.7458 14.1063L33.5667 12.3334C33.9889 13.2841 34.3056 14.2733 34.5167 15.3011C34.7278 16.3289 34.8333 17.3952 34.8333 18.5C34.8333 20.6841 34.4243 22.7139 33.6063 24.5896C32.7882 26.4653 31.6667 28.0969 30.2417 29.4844C28.8167 30.8719 27.141 31.9575 25.2146 32.7412C23.2882 33.5249 21.2167 33.9167 19 33.9167ZM16.6646 25.5146L10.1333 19.1167L11.9146 17.3823L16.6646 22.0073L33.0521 6.05108L34.8729 7.78546L16.6646 25.5146Z" fill="currentColor"/>
</svg>
