<svg width="25" height="24" viewBox="0 0 25 24" fill="none" xmlns="http://www.w3.org/2000/svg">
<path d="M12.3243 22C10.8694 22 9.51711 21.7458 8.26756 21.2375C7.01801 20.7292 5.93107 20.025 5.00675 19.125C4.08242 18.225 3.35923 17.1667 2.83715 15.95C2.31508 14.7333 2.05405 13.4167 2.05405 12C2.05405 10.6 2.31508 9.29167 2.83715 8.075C3.35923 6.85833 4.08242 5.8 5.00675 4.9C5.93107 4 7.01801 3.29167 8.26756 2.775C9.51711 2.25833 10.8694 2 12.3243 2C13.6081 2 14.8063 2.2 15.9189 2.6C17.0315 3 18.0329 3.55 18.923 4.25L17.8189 5.325C17.0658 4.74167 16.227 4.29167 15.3027 3.975C14.3784 3.65833 13.3856 3.5 12.3243 3.5C9.84233 3.5 7.76688 4.3125 6.09797 5.9375C4.42905 7.5625 3.59459 9.58333 3.59459 12C3.59459 14.4167 4.42905 16.4375 6.09797 18.0625C7.76688 19.6875 9.84233 20.5 12.3243 20.5C14.8063 20.5 16.8817 19.6875 18.5507 18.0625C20.2196 16.4375 21.054 14.4167 21.054 12C21.054 11.5 21.0155 11.0125 20.9385 10.5375C20.8615 10.0625 20.7459 9.6 20.5919 9.15L21.773 8C22.0468 8.61667 22.2522 9.25833 22.3892 9.925C22.5261 10.5917 22.5946 11.2833 22.5946 12C22.5946 13.4167 22.3293 14.7333 21.7986 15.95C21.268 17.1667 20.5405 18.225 19.6162 19.125C18.6919 20.025 17.6049 20.7292 16.3554 21.2375C15.1058 21.7458 13.7622 22 12.3243 22ZM10.8095 16.55L6.57297 12.4L7.72837 11.275L10.8095 14.275L21.4392 3.925L22.6203 5.05L10.8095 16.55Z" fill="currentColor"/>
</svg>
