<svg width="35" height="35" viewBox="0 0 35 35" fill="none" xmlns="http://www.w3.org/2000/svg">
<g clip-path="url(#clip0_30_197)">
<path d="M29.7646 12.2646L22.7208 5.22083C22.1812 4.68125 21.4375 4.375 20.6646 4.375H7.29167C5.6875 4.375 4.375 5.6875 4.375 7.29167V27.7083C4.375 29.3125 5.6875 30.625 7.29167 30.625H27.7083C29.3125 30.625 30.625 29.3125 30.625 27.7083V14.3354C30.625 13.5625 30.3188 12.8188 29.7646 12.2646ZM10.2083 10.2083H20.4167V13.125H10.2083V10.2083ZM24.7917 24.7917H10.2083V21.875H24.7917V24.7917ZM24.7917 18.9583H10.2083V16.0417H24.7917V18.9583Z" fill="currentColor"/>
</g>
<defs>
<clipPath id="clip0_30_197">
<rect width="35" height="35" fill="white"/>
</clipPath>
</defs>
</svg>
