<svg width="37" height="37" viewBox="0 0 37 37" fill="none" xmlns="http://www.w3.org/2000/svg">
<path d="M30.8333 6.16675C32.5292 6.16675 33.9167 7.53883 33.9167 9.25008V24.6667C33.9167 26.378 32.5446 27.7501 30.8333 27.7501H37V30.8334H0V27.7501H6.16667C4.47083 27.7501 3.08333 26.378 3.08333 24.6667V9.25008C3.08333 7.53883 4.45542 6.16675 6.16667 6.16675H30.8333ZM30.8333 9.25008H6.16667V24.6667H30.8333V9.25008ZM18.5 18.5001C21.9071 18.5001 24.6667 19.8876 24.6667 21.5834V23.1251H12.3333V21.5834C12.3333 19.8876 15.0929 18.5001 18.5 18.5001ZM18.5 10.7917C20.2113 10.7917 21.5833 12.1792 21.5833 13.8751C21.5833 15.5709 20.2113 16.9584 18.5 16.9584C16.7887 16.9584 15.4167 15.5863 15.4167 13.8751C15.4167 12.1638 16.8042 10.7917 18.5 10.7917Z" fill="currentColor"/>
</svg>
