<svg width="37" height="37" viewBox="0 0 37 37" fill="none" xmlns="http://www.w3.org/2000/svg">
<path d="M20.1496 16.0488C21.0861 14.7403 21.5896 13.1716 21.5896 11.5625C21.5896 9.95348 21.0861 8.38476 20.1496 7.07629C21.026 6.47806 22.0638 6.1608 23.125 6.16671C24.5561 6.16671 25.9285 6.7352 26.9404 7.74711C27.9523 8.75903 28.5208 10.1315 28.5208 11.5625C28.5208 12.9936 27.9523 14.3661 26.9404 15.378C25.9285 16.3899 24.5561 16.9584 23.125 16.9584C22.0638 16.9643 21.026 16.647 20.1496 16.0488ZM8.47916 11.5625C8.47916 10.4953 8.79562 9.45212 9.38852 8.56478C9.98143 7.67744 10.8241 6.98584 11.8101 6.57744C12.7961 6.16904 13.881 6.06219 14.9277 6.27039C15.9744 6.47859 16.9358 6.99249 17.6904 7.74711C18.445 8.50173 18.959 9.46318 19.1672 10.5099C19.3753 11.5566 19.2685 12.6415 18.8601 13.6274C18.4517 14.6134 17.7601 15.4561 16.8728 16.049C15.9854 16.6419 14.9422 16.9584 13.875 16.9584C12.4439 16.9584 11.0715 16.3899 10.0596 15.378C9.04765 14.3661 8.47916 12.9936 8.47916 11.5625ZM11.5625 11.5625C11.5625 12.0199 11.6981 12.467 11.9522 12.8473C12.2063 13.2276 12.5675 13.524 12.99 13.699C13.4126 13.874 13.8776 13.9198 14.3261 13.8306C14.7747 13.7414 15.1868 13.5211 15.5102 13.1977C15.8336 12.8743 16.0538 12.4623 16.1431 12.0137C16.2323 11.5651 16.1865 11.1001 16.0115 10.6776C15.8364 10.255 15.54 9.89387 15.1598 9.63977C14.7795 9.38567 14.3324 9.25004 13.875 9.25004C13.2617 9.25004 12.6735 9.49368 12.2398 9.92736C11.8061 10.361 11.5625 10.9492 11.5625 11.5625ZM24.6667 26.2084V29.2917H3.08333V26.2084C3.08333 26.2084 3.08333 20.0417 13.875 20.0417C24.6667 20.0417 24.6667 26.2084 24.6667 26.2084ZM21.5833 26.2084C21.3675 25.0059 19.5329 23.125 13.875 23.125C8.21708 23.125 6.27458 25.1446 6.16666 26.2084M24.5896 20.0417C25.5345 20.7767 26.307 21.7096 26.853 22.7749C27.399 23.8402 27.7052 25.0121 27.75 26.2084V29.2917H33.9167V26.2084C33.9167 26.2084 33.9167 20.6121 24.5742 20.0417H24.5896Z" fill="currentColor"/>
</svg>
