<svg width="37" height="37" viewBox="0 0 37 37" fill="none" xmlns="http://www.w3.org/2000/svg">
<path d="M30.8333 6.16663C32.5292 6.16663 33.9167 7.53871 33.9167 9.24996V24.6666C33.9167 26.3779 32.5446 27.75 30.8333 27.75H37V30.8333H0V27.75H6.16667C4.47083 27.75 3.08333 26.3779 3.08333 24.6666V9.24996C3.08333 7.53871 4.45542 6.16663 6.16667 6.16663H30.8333ZM30.8333 9.24996H6.16667V24.6666H30.8333V9.24996ZM18.5 18.5C21.9071 18.5 24.6667 19.8875 24.6667 21.5833V23.125H12.3333V21.5833C12.3333 19.8875 15.0929 18.5 18.5 18.5ZM18.5 10.7916C20.2113 10.7916 21.5833 12.1791 21.5833 13.875C21.5833 15.5708 20.2113 16.9583 18.5 16.9583C16.7887 16.9583 15.4167 15.5862 15.4167 13.875C15.4167 12.1637 16.8042 10.7916 18.5 10.7916Z" fill="currentColor"/>
</svg>
