<svg width="37" height="37" viewBox="0 0 37 37" fill="none" xmlns="http://www.w3.org/2000/svg">
<g clip-path="url(#clip0_30_159)">
<path d="M16.9583 27.75H20.0417V24.6667H16.9583V27.75ZM18.5 3.08337C9.99 3.08337 3.08334 9.99004 3.08334 18.5C3.08334 27.01 9.99 33.9167 18.5 33.9167C27.01 33.9167 33.9167 27.01 33.9167 18.5C33.9167 9.99004 27.01 3.08337 18.5 3.08337ZM18.5 30.8334C11.7013 30.8334 6.16667 25.2988 6.16667 18.5C6.16667 11.7013 11.7013 6.16671 18.5 6.16671C25.2988 6.16671 30.8333 11.7013 30.8333 18.5C30.8333 25.2988 25.2988 30.8334 18.5 30.8334ZM18.5 9.25004C15.0929 9.25004 12.3333 12.0096 12.3333 15.4167H15.4167C15.4167 13.7209 16.8042 12.3334 18.5 12.3334C20.1958 12.3334 21.5833 13.7209 21.5833 15.4167C21.5833 18.5 16.9583 18.1146 16.9583 23.125H20.0417C20.0417 19.6563 24.6667 19.2709 24.6667 15.4167C24.6667 12.0096 21.9071 9.25004 18.5 9.25004Z" fill="currentColor"/>
</g>
<defs>
<clipPath id="clip0_30_159">
<rect width="37" height="37" fill="white"/>
</clipPath>
</defs>
</svg>
