<svg width="22" height="21" viewBox="0 0 22 21" fill="none" xmlns="http://www.w3.org/2000/svg">
<mask id="mask0_2293_7" style="mask-type:alpha" maskUnits="userSpaceOnUse" x="-1" y="-2" width="24" height="25">
<rect x="-1" y="-1.5" width="24" height="24" fill="currentColor"/>
</mask>
<g mask="url(#mask0_2293_7)">
<path d="M7.6 21L5.7 17.8L2.1 17L2.45 13.3L0 10.5L2.45 7.7L2.1 4L5.7 3.2L7.6 0L11 1.45L14.4 0L16.3 3.2L19.9 4L19.55 7.7L22 10.5L19.55 13.3L19.9 17L16.3 17.8L14.4 21L11 19.55L7.6 21ZM8.45 18.45L11 17.35L13.6 18.45L15 16.05L17.75 15.4L17.5 12.6L19.35 10.5L17.5 8.35L17.75 5.55L15 4.95L13.55 2.55L11 3.65L8.4 2.55L7 4.95L4.25 5.55L4.5 8.35L2.65 10.5L4.5 12.6L4.25 15.45L7 16.05L8.45 18.45ZM9.95 14.05L15.6 8.4L14.2 6.95L9.95 11.2L7.8 9.1L6.4 10.5L9.95 14.05Z" fill="currentColor"/>
</g>
</svg>
