<svg width="22" height="12" viewBox="0 0 22 12" fill="none" xmlns="http://www.w3.org/2000/svg">
<mask id="mask0_1831_7" style="mask-type:alpha" maskUnits="userSpaceOnUse" x="-1" y="-6" width="24" height="24">
<rect x="-1" y="-6" width="24" height="24" fill="currentColor"/>
</mask>
<g mask="url(#mask0_1831_7)">
<path d="M6 12C4.33333 12 2.91667 11.4167 1.75 10.25C0.583333 9.08333 0 7.66667 0 6C0 4.33333 0.583333 2.91667 1.75 1.75C2.91667 0.583333 4.33333 0 6 0C7.1 0 8.10833 0.275 9.025 0.825C9.94167 1.375 10.6667 2.1 11.2 3H22V9H20V12H14V9H11.2C10.6667 9.9 9.94167 10.625 9.025 11.175C8.10833 11.725 7.1 12 6 12ZM6 10C7.1 10 7.98333 9.6625 8.65 8.9875C9.31667 8.3125 9.71667 7.65 9.85 7H16V10H18V7H20V5H9.85C9.71667 4.35 9.31667 3.6875 8.65 3.0125C7.98333 2.3375 7.1 2 6 2C4.9 2 3.95833 2.39167 3.175 3.175C2.39167 3.95833 2 4.9 2 6C2 7.1 2.39167 8.04167 3.175 8.825C3.95833 9.60833 4.9 10 6 10ZM6 8C6.55 8 7.02083 7.80417 7.4125 7.4125C7.80417 7.02083 8 6.55 8 6C8 5.45 7.80417 4.97917 7.4125 4.5875C7.02083 4.19583 6.55 4 6 4C5.45 4 4.97917 4.19583 4.5875 4.5875C4.19583 4.97917 4 5.45 4 6C4 6.55 4.19583 7.02083 4.5875 7.4125C4.97917 7.80417 5.45 8 6 8Z" fill="currentColor"/>
</g>
</svg>
