<svg width="35" height="35" viewBox="0 0 35 35" fill="none" xmlns="http://www.w3.org/2000/svg">
<g clip-path="url(#clip0_30_165)">
<path fill-rule="evenodd" clip-rule="evenodd" d="M20.4167 8.74996V5.83329H14.5833V8.74996H20.4167ZM5.83334 11.6666V27.7083H29.1667V11.6666H5.83334ZM29.1667 8.74996C30.7854 8.74996 32.0833 10.0479 32.0833 11.6666V27.7083C32.0833 29.327 30.7854 30.625 29.1667 30.625H5.83334C4.21459 30.625 2.91667 29.327 2.91667 27.7083L2.93126 11.6666C2.93126 10.0479 4.21459 8.74996 5.83334 8.74996H11.6667V5.83329C11.6667 4.21454 12.9646 2.91663 14.5833 2.91663H20.4167C22.0354 2.91663 23.3333 4.21454 23.3333 5.83329V8.74996H29.1667Z" fill="currentColor"/>
</g>
<defs>
<clipPath id="clip0_30_165">
<rect width="35" height="35" fill="white"/>
</clipPath>
</defs>
</svg>
