<svg viewBox="0 0 161 41" fill="none" xmlns="http://www.w3.org/2000/svg">
<path fill-rule="evenodd" clip-rule="evenodd" d="M6.33565 9.47213C3.91313 12.4923 2.46396 16.3268 2.46396 20.4998C2.46396 24.6728 3.91313 28.5072 6.33565 31.5275V9.47213ZM8.79962 6.95838V34.0412C9.95187 35.004 11.2289 35.8224 12.6029 36.4687V4.53084C11.2289 5.17718 9.95187 5.99562 8.79962 6.95838ZM15.0668 3.59102V37.4086C16.2846 37.7706 17.5575 38.0048 18.8698 38.0953V2.90427C17.5575 2.99482 16.2846 3.22894 15.0668 3.59102ZM21.3338 2.90427V6.76487H31.1684C28.4413 4.5648 25.0455 3.16035 21.3338 2.90427ZM33.6693 9.22883H21.3338V13.0345H36.0866C35.4436 11.6601 34.6286 10.3823 33.6693 9.22883ZM37.0206 15.4984H21.3338V19.3016H37.6997C37.6116 17.9894 37.3801 16.7165 37.0206 15.4984ZM37.695 21.7655H21.3338V38.0953C22.71 38.0004 24.0428 37.7475 25.3142 37.3548V25.722H36.9538C37.3451 24.4581 37.598 23.1334 37.695 21.7655ZM35.9814 28.186H27.7782V30.4583H30.2422V32.9223H27.7782V36.3841C31.3499 34.6548 34.25 31.7564 35.9814 28.186ZM0 20.4998C0 9.39785 8.9999 0.397949 20.1018 0.397949C31.2038 0.397949 40.2037 9.39785 40.2037 20.4998C40.2037 31.6017 31.2038 40.6016 20.1018 40.6016C8.9999 40.6016 0 31.6017 0 20.4998Z" fill="currentColor"/>
<path d="M56.7105 32.8209V8.61363H71.6671V12.1583H60.5837V19.1265H66.0246V22.5847H60.5837V32.8209H56.7105Z" fill="currentColor"/>
<path d="M73.8485 32.8209V15.7029H77.6525V32.8209H73.8485ZM75.7505 12.6424C75.0704 12.6424 74.4825 12.4234 73.9868 11.9854C73.4911 11.5473 73.2433 10.971 73.2433 10.2563C73.2433 9.5531 73.4911 8.9825 73.9868 8.54446C74.4825 8.0949 75.0704 7.87012 75.7505 7.87012C76.4306 7.87012 77.0185 8.0949 77.5142 8.54446C78.0098 8.9825 78.2577 9.5531 78.2577 10.2563C78.2577 10.971 78.0098 11.5473 77.5142 11.9854C77.0185 12.4234 76.4306 12.6424 75.7505 12.6424Z" fill="currentColor"/>
<path d="M80.5122 32.8209V7.92199H84.3162V32.8209H80.5122Z" fill="currentColor"/>
<path d="M87.176 32.8209V15.7029H90.98V32.8209H87.176ZM89.078 12.6424C88.3979 12.6424 87.81 12.4234 87.3143 11.9854C86.8186 11.5473 86.5708 10.971 86.5708 10.2563C86.5708 9.5531 86.8186 8.9825 87.3143 8.54446C87.81 8.0949 88.3979 7.87012 89.078 7.87012C89.7581 7.87012 90.346 8.0949 90.8417 8.54446C91.3373 8.9825 91.5852 9.5531 91.5852 10.2563C91.5852 10.971 91.3373 11.5473 90.8417 11.9854C90.346 12.4234 89.7581 12.6424 89.078 12.6424Z" fill="currentColor"/>
<path d="M101.309 40.6018C100.168 40.6018 99.0385 40.4923 97.9204 40.2733C96.8138 40.0542 95.759 39.6854 94.7562 39.1666L95.7072 36.0197C96.5832 36.4462 97.4766 36.7574 98.3872 36.9534C99.3094 37.1494 100.22 37.2473 101.119 37.2473C103.102 37.2473 104.612 36.7747 105.649 35.8295C106.687 34.8958 107.206 33.6451 107.206 32.0774V28.3425L107.724 29.1552C107.159 30.2849 106.312 31.2013 105.183 31.9045C104.064 32.5961 102.664 32.9419 100.981 32.9419C99.2518 32.9419 97.736 32.5558 96.4334 31.7834C95.1423 30.9996 94.1337 29.9391 93.4075 28.6019C92.6928 27.2532 92.3354 25.7431 92.3354 24.0717C92.3354 22.8152 92.5429 21.651 92.9579 20.5789C93.3729 19.4954 93.9608 18.5501 94.7216 17.7432C95.4824 16.9363 96.393 16.3081 97.4535 15.8585C98.514 15.4089 99.6898 15.1842 100.981 15.1842C102.664 15.1842 104.064 15.5357 105.183 16.2389C106.312 16.9305 107.159 17.8412 107.724 18.9709L107.206 19.7835V15.6856H110.75V31.2301C110.75 34.1926 109.955 36.4923 108.364 38.1292C106.773 39.7776 104.422 40.6018 101.309 40.6018ZM101.551 29.6394C102.6 29.6394 103.534 29.4088 104.353 28.9477C105.171 28.4866 105.811 27.8411 106.272 27.0111C106.733 26.1812 106.964 25.2014 106.964 24.0717C106.964 22.942 106.733 21.9564 106.272 21.1149C105.811 20.2735 105.171 19.6279 104.353 19.1784C103.534 18.7173 102.6 18.4867 101.551 18.4867C100.491 18.4867 99.5515 18.7173 98.7331 19.1784C97.9262 19.6279 97.2922 20.2735 96.8311 21.1149C96.37 21.9564 96.1394 22.942 96.1394 24.0717C96.1394 25.2014 96.37 26.1812 96.8311 27.0111C97.2922 27.8411 97.9262 28.4866 98.7331 28.9477C99.5515 29.4088 100.491 29.6394 101.551 29.6394Z" fill="currentColor"/>
<path d="M113.607 32.8209V15.7029H117.411V18.0717C118.056 16.9997 118.84 16.2504 119.762 15.8239C120.684 15.3859 121.676 15.1669 122.736 15.1669C123.082 15.1669 123.411 15.1842 123.722 15.2187C124.033 15.2533 124.333 15.3052 124.621 15.3744L124.12 19.2994C123.774 19.1957 123.422 19.115 123.065 19.0573C122.708 18.9997 122.35 18.9709 121.993 18.9709C120.667 18.9709 119.572 19.3801 118.708 20.1985C117.843 21.0054 117.411 22.1063 117.411 23.5011V32.8209H113.607Z" fill="currentColor"/>
<path d="M132.277 33.3396C130.571 33.3396 129.061 32.9477 127.747 32.1638C126.444 31.3684 125.418 30.2906 124.669 28.9304C123.931 27.5587 123.563 26.0025 123.563 24.2619C123.563 22.9593 123.776 21.7547 124.202 20.6481C124.629 19.5415 125.228 18.5789 126.001 17.7605C126.773 16.9421 127.695 16.3081 128.767 15.8585C129.839 15.4089 131.009 15.1842 132.277 15.1842C133.96 15.1842 135.366 15.5415 136.496 16.2562C137.637 16.9709 138.508 17.8931 139.107 19.0227L138.571 19.8354V15.7029H141.96V32.8209H138.571V28.6884L139.107 29.501C138.508 30.6307 137.637 31.5529 136.496 32.2676C135.366 32.9823 133.96 33.3396 132.277 33.3396ZM132.779 29.9679C133.816 29.9679 134.744 29.7373 135.562 29.2762C136.381 28.8036 137.021 28.1408 137.482 27.2878C137.954 26.4348 138.191 25.4261 138.191 24.2619C138.191 23.0976 137.954 22.089 137.482 21.236C137.021 20.3714 136.381 19.7086 135.562 19.2475C134.744 18.7864 133.816 18.5559 132.779 18.5559C131.73 18.5559 130.796 18.7864 129.977 19.2475C129.171 19.7086 128.531 20.3714 128.058 21.236C127.586 22.089 127.349 23.0976 127.349 24.2619C127.349 25.4261 127.586 26.4348 128.058 27.2878C128.531 28.1408 129.171 28.8036 129.977 29.2762C130.796 29.7373 131.73 29.9679 132.779 29.9679Z" fill="currentColor"/>
<path d="M144.833 32.8209V15.7029H148.637V17.8815C149.352 16.9248 150.182 16.2389 151.127 15.8239C152.072 15.3974 153.052 15.1842 154.066 15.1842C155.634 15.1842 156.931 15.4954 157.957 16.1179C158.983 16.7403 159.744 17.5415 160.239 18.5213C160.746 19.5011 161 20.5098 161 21.5472V32.8209H157.196V22.723C157.196 21.5011 156.827 20.5213 156.089 19.7835C155.363 19.0458 154.349 18.6769 153.046 18.6769C152.193 18.6769 151.432 18.8671 150.764 19.2475C150.107 19.6279 149.588 20.1582 149.208 20.8383C148.827 21.5069 148.637 22.2907 148.637 23.1899V32.8209H144.833Z" fill="currentColor"/>
</svg>
